<svg xmlns="http://www.w3.org/2000/svg" xmlns:xlink="http://www.w3.org/1999/xlink" viewBox="0 0 370.01 312.02"><defs><style>.cls-1,.cls-10,.cls-15,.cls-16,.cls-19{fill:none;}.cls-2{isolation:isolate;}.cls-3{clip-path:url(#clip-path);}.cls-4{fill:#d1b7a7;}.cls-5{fill:#ab886c;}.cls-6{fill:#fcd14e;}.cls-7{fill:#e8c048;}.cls-8{fill:#b59982;}.cls-9{fill:#e2c6b5;}.cls-10,.cls-15{stroke:#808184;}.cls-10,.cls-15,.cls-16,.cls-19,.cls-24{stroke-miterlimit:10;}.cls-10{stroke-width:2.83px;}.cls-11{fill:#c4ac9d;}.cls-12{fill:#c4b8af;opacity:0.2;mix-blend-mode:multiply;}.cls-13{fill:#754c28;}.cls-14{fill:#462754;}.cls-15{stroke-width:0.57px;}.cls-16{stroke:#58595b;}.cls-17{fill:#929497;}.cls-18{fill:#9acdeb;}.cls-19{stroke:#56acde;}.cls-20{fill:#e87e49;}.cls-21{fill:#e45043;}.cls-22{fill:#58595b;}.cls-23{fill:#ecbba6;}.cls-24{fill:#bd3870;stroke:#c36;}.cls-25{fill:#b57764;}.cls-26{fill:#7fbfe6;}.cls-27{fill:#56acde;}.cls-28{fill:#78bde5;}.cls-29{fill:#734a27;}.cls-30{fill:#59391e;}.cls-31{fill:#f05a28;}.cls-32{fill:#faaf40;}.cls-33{fill:#f5883e;}.cls-34{fill:#d0d2d3;}.cls-35{fill:#f1f1f2;}.cls-36{fill:#fff;}.cls-37{clip-path:url(#clip-path-2);}.cls-38{fill:#2b1d13;}.cls-39{fill:#808184;}.cls-40{fill:#ba8f6e;}.cls-41{fill:#8b5e3c;}.cls-42{fill:#d1d3d4;}.cls-43{fill:#bcbec0;}.cls-44{fill:#9d6b45;}.cls-45{fill:#007197;}.cls-46{fill:#009cd9;}.cls-47{fill:#cbcdce;}.cls-48{clip-path:url(#clip-path-3);}.cls-49{fill:#8bc53f;}.cls-50{fill:#d4a78e;}.cls-51{fill:#401a4c;}.cls-52{fill:#e6e7e8;}.cls-53{clip-path:url(#clip-path-4);}.cls-54{clip-path:url(#clip-path-5);}.cls-55{clip-path:url(#clip-path-6);}.cls-56{fill:#be936c;}.cls-57{fill:#ad8662;}.cls-58{fill:#6b4623;}.cls-59{fill:#bbbdbf;}.cls-60{fill:#a6a8ab;}.cls-61{fill:#8a5d3b;}.cls-62{fill:#f9c7af;}.cls-63{fill:#8dcb3c;}.cls-64{fill:#f6d9cb;}.cls-65{fill:#70b082;}.cls-66{fill:#548462;}.cls-67{fill:#406f50;}.cls-68{fill:#e25287;}.cls-69{fill:#e12e42;}.cls-70{clip-path:url(#clip-path-7);}.cls-71{clip-path:url(#clip-path-8);}.cls-72{fill:#734b28;}.cls-73{fill:#209cab;}.cls-74{fill:#1a808c;}.cls-75{fill:#b9892f;}.cls-76{fill:#f6b63e;}.cls-77{fill:#009345;}.cls-78{fill:#009393;}.cls-79{fill:#ea8093;}.cls-80{clip-path:url(#clip-path-9);}.cls-81{clip-path:url(#clip-path-10);}.cls-82{clip-path:url(#clip-path-11);}</style><clipPath id="clip-path" transform="translate(0 -10.26)"><rect id="SVGID" class="cls-1" x="27.34" width="349" height="349"/></clipPath><clipPath id="clip-path-2" transform="translate(0 -10.26)"><ellipse id="SVGID-2" data-name="SVGID" class="cls-1" cx="235.7" cy="153.08" rx="3.91" ry="3.01" transform="translate(24.77 338.81) rotate(-74.37)"/></clipPath><clipPath id="clip-path-3" transform="translate(0 -10.26)"><path id="SVGID-3" data-name="SVGID" class="cls-1" d="M158.8,164.05l2.56-6.26a12.47,12.47,0,0,0,.71-7h0a1.41,1.41,0,0,0-1.38-1.14,1.25,1.25,0,1,1,0-2.49h12.86a1.25,1.25,0,0,1,0,2.49,1.4,1.4,0,0,0-1.38,1.14h0a12.47,12.47,0,0,0,.71,7l2.56,6.26a10.24,10.24,0,0,1,.4,8.68,9.88,9.88,0,0,1-4.82,4.82h-7.8a9.88,9.88,0,0,1-4.82-4.82A10.24,10.24,0,0,1,158.8,164.05Z"/></clipPath><clipPath id="clip-path-4" transform="translate(0 -10.26)"><path id="SVGID-4" data-name="SVGID" class="cls-1" d="M186.49,293.05l2.55-6.26a12.35,12.35,0,0,0,.71-7h0a1.39,1.39,0,0,0-1.37-1.15,1.25,1.25,0,1,1,0-2.49h12.86a1.25,1.25,0,0,1,0,2.49,1.4,1.4,0,0,0-1.38,1.15h0a12.44,12.44,0,0,0,.71,7l2.55,6.26a10.19,10.19,0,0,1,.41,8.68,9.88,9.88,0,0,1-4.83,4.82h-7.79a9.88,9.88,0,0,1-4.82-4.82A10.24,10.24,0,0,1,186.49,293.05Z"/></clipPath><clipPath id="clip-path-5" transform="translate(0 -10.26)"><path id="SVGID-5" data-name="SVGID" class="cls-1" d="M172.34,293.05l2.56-6.26a12.44,12.44,0,0,0,.71-7h0a1.41,1.41,0,0,0-1.38-1.15,1.25,1.25,0,1,1,0-2.49h12.86a1.25,1.25,0,0,1,0,2.49,1.4,1.4,0,0,0-1.38,1.15h0a12.44,12.44,0,0,0,.71,7l2.56,6.26a10.24,10.24,0,0,1,.4,8.68,9.88,9.88,0,0,1-4.82,4.82h-7.8a9.88,9.88,0,0,1-4.82-4.82A10.24,10.24,0,0,1,172.34,293.05Z"/></clipPath><clipPath id="clip-path-6" transform="translate(0 -10.26)"><path id="SVGID-6" data-name="SVGID" class="cls-1" d="M162.09,293.05l2.55-6.26a12.44,12.44,0,0,0,.72-7h0a1.41,1.41,0,0,0-1.38-1.15,1.25,1.25,0,1,1,0-2.49h12.86a1.25,1.25,0,0,1,0,2.49,1.4,1.4,0,0,0-1.38,1.15h0a12.44,12.44,0,0,0,.71,7l2.56,6.26a10.24,10.24,0,0,1,.4,8.68,9.88,9.88,0,0,1-4.82,4.82h-7.8a9.88,9.88,0,0,1-4.82-4.82A10.24,10.24,0,0,1,162.09,293.05Z"/></clipPath><clipPath id="clip-path-7" transform="translate(0 -10.26)"><circle id="SVGID-7" data-name="SVGID" class="cls-1" cx="129.74" cy="162.36" r="3.98"/></clipPath><clipPath id="clip-path-8" transform="translate(0 -10.26)"><path id="SVGID-8" data-name="SVGID" class="cls-1" d="M141.16,162.36c0,2.2-.83,4-1.86,4s-1.85-1.78-1.85-4,.83-4,1.85-4S141.16,160.16,141.16,162.36Z"/></clipPath><clipPath id="clip-path-9" transform="translate(0 -10.26)"><path id="SVGID-9" data-name="SVGID" class="cls-1" d="M85.24,301.92l2.56-6.26a12.47,12.47,0,0,0,.71-7h0a1.4,1.4,0,0,0-1.38-1.14,1.25,1.25,0,0,1,0-2.49H100a1.25,1.25,0,1,1,0,2.49,1.41,1.41,0,0,0-1.38,1.14h0a12.38,12.38,0,0,0,.72,7l2.55,6.26a10.24,10.24,0,0,1,.4,8.68,9.88,9.88,0,0,1-4.82,4.82h-7.8a9.88,9.88,0,0,1-4.82-4.82A10.24,10.24,0,0,1,85.24,301.92Z"/></clipPath><clipPath id="clip-path-10" transform="translate(0 -10.26)"><path id="SVGID-10" data-name="SVGID" class="cls-1" d="M71.1,301.92l2.55-6.26a12.47,12.47,0,0,0,.71-7h0A1.4,1.4,0,0,0,73,287.53,1.25,1.25,0,0,1,73,285H85.84a1.25,1.25,0,1,1,0,2.49,1.39,1.39,0,0,0-1.37,1.14h0a12.38,12.38,0,0,0,.71,7l2.55,6.26a10.24,10.24,0,0,1,.4,8.68,9.88,9.88,0,0,1-4.82,4.82H75.52a9.92,9.92,0,0,1-4.83-4.82A10.23,10.23,0,0,1,71.1,301.92Z"/></clipPath><clipPath id="clip-path-11" transform="translate(0 -10.26)"><path id="SVGID-11" data-name="SVGID" class="cls-1" d="M60.85,301.92l2.55-6.26a12.47,12.47,0,0,0,.71-7h0a1.4,1.4,0,0,0-1.38-1.14,1.25,1.25,0,0,1,0-2.49H75.59a1.25,1.25,0,1,1,0,2.49,1.41,1.41,0,0,0-1.38,1.14h0a12.47,12.47,0,0,0,.72,7l2.55,6.26a10.24,10.24,0,0,1,.4,8.68,9.88,9.88,0,0,1-4.82,4.82H65.27a9.88,9.88,0,0,1-4.83-4.82A10.19,10.19,0,0,1,60.85,301.92Z"/></clipPath></defs><title>cocoliss</title><g class="cls-2"><g id="Capa_2" data-name="Capa 2"><g id="Controles_bootstrap" data-name="Controles bootstrap"><g class="cls-3"><path class="cls-4" d="M62.54,54.51H51.94s-4.76,4.85-3,8.81,14.76,4,16.54,0S62.54,54.51,62.54,54.51Z" transform="translate(0 -10.26)"/><path class="cls-4" d="M45.38,95.52V92.65H46V90.92H40.23v1.73h.59v2.87h0a2.33,2.33,0,0,0-2.33,2.33v16.59h9.22V97.85a2.33,2.33,0,0,0-2.33-2.33Z" transform="translate(0 -10.26)"/><path class="cls-4" d="M59.52,95.52V92.65h.59V90.92H54.37v1.73H55v2.87h0a2.33,2.33,0,0,0-2.33,2.33v16.59h9.21V97.85a2.32,2.32,0,0,0-2.32-2.33Z" transform="translate(0 -10.26)"/><rect class="cls-5" y="7.87" width="12.22" height="246.58"/><rect class="cls-5" x="128.43" y="7.87" width="12.21" height="246.58"/><rect class="cls-6" x="99.61" y="29.18" width="30.98" height="26.86"/><rect class="cls-7" x="111.93" y="29.18" width="18.65" height="26.86"/><rect class="cls-8" x="7.33" y="7.87" width="4.89" height="246.58"/><rect class="cls-8" x="135.76" y="7.87" width="4.89" height="246.58"/><rect class="cls-8" x="71.54" y="-46.08" width="4.89" height="133.32" transform="translate(53.41 84.3) rotate(-90)"/><rect class="cls-8" x="71.54" y="2.08" width="4.89" height="133.32" transform="translate(5.25 132.46) rotate(-90)"/><rect class="cls-8" x="71.54" y="50.24" width="4.89" height="133.32" transform="translate(-42.91 180.63) rotate(-90)"/><rect class="cls-8" x="71.54" y="98.4" width="4.89" height="133.32" transform="translate(-91.07 228.79) rotate(-90)"/><rect class="cls-8" x="71.54" y="146.56" width="4.89" height="133.32" transform="translate(-139.24 276.95) rotate(-90)"/><path class="cls-9" d="M30.83,54.51H20.23s-4.75,4.85-3,8.81,14.76,4,16.54,0S30.83,54.51,30.83,54.51Z" transform="translate(0 -10.26)"/><path class="cls-9" d="M47.61,54.51H37s-4.75,4.85-3,8.81,14.76,4,16.54,0S47.61,54.51,47.61,54.51Z" transform="translate(0 -10.26)"/><path class="cls-9" d="M73.69,199.29H63.09s-4.75,4.85-3,8.81,14.76,4,16.54,0S73.69,199.29,73.69,199.29Z" transform="translate(0 -10.26)"/><path class="cls-9" d="M90.47,199.29H79.87s-4.75,4.85-3,8.81,14.76,4,16.54,0S90.47,199.29,90.47,199.29Z" transform="translate(0 -10.26)"/><path class="cls-9" d="M73.41,54.51H62.81s-4.76,4.85-3,8.81,14.76,4,16.54,0S73.41,54.51,73.41,54.51Z" transform="translate(0 -10.26)"/><path class="cls-9" d="M94.7,54.51H84.1s-4.76,4.85-3,8.81,14.76,4,16.54,0S94.7,54.51,94.7,54.51Z" transform="translate(0 -10.26)"/><path class="cls-9" d="M23.74,95.52V92.65h.59V90.92H18.6v1.73h.59v2.87h0a2.33,2.33,0,0,0-2.33,2.33v16.59h9.21V97.85a2.33,2.33,0,0,0-2.33-2.33Z" transform="translate(0 -10.26)"/><path class="cls-9" d="M38.05,95.52V92.65h.59V90.92H32.91v1.73h.59v2.87h0a2.33,2.33,0,0,0-2.33,2.33v16.59h9.21V97.85a2.33,2.33,0,0,0-2.33-2.33Z" transform="translate(0 -10.26)"/><path class="cls-4" d="M121.11,95.52V92.65h.59V90.92H116v1.73h.6v2.87h0a2.33,2.33,0,0,0-2.33,2.33v16.59h9.21V97.85a2.33,2.33,0,0,0-2.33-2.33Z" transform="translate(0 -10.26)"/><path class="cls-9" d="M99.48,95.52V92.65h.59V90.92H94.33v1.73h.59v2.87h0a2.33,2.33,0,0,0-2.33,2.33v16.59h9.21V97.85a2.32,2.32,0,0,0-2.32-2.33Z" transform="translate(0 -10.26)"/><path class="cls-9" d="M113.79,95.52V92.65h.59V90.92h-5.74v1.73h.59v2.87h0a2.33,2.33,0,0,0-2.33,2.33v16.59h9.21V97.85a2.32,2.32,0,0,0-2.32-2.33Z" transform="translate(0 -10.26)"/><path class="cls-9" d="M66.67,95.52V92.65h.59V90.92H61.52v1.73h.59v2.87h0a2.32,2.32,0,0,0-2.32,2.33v16.59H69V97.85a2.33,2.33,0,0,0-2.33-2.33Z" transform="translate(0 -10.26)"/><path class="cls-9" d="M81,95.52V92.65h.59V90.92H75.83v1.73h.59v2.87h0a2.32,2.32,0,0,0-2.32,2.33v16.59h9.21V97.85A2.33,2.33,0,0,0,81,95.52Z" transform="translate(0 -10.26)"/><path class="cls-4" d="M75.43,146.18l-3.15-7.71a15.46,15.46,0,0,1-.88-8.61h0a1.73,1.73,0,0,1,1.7-1.41,1.54,1.54,0,1,0,0-3.07H57.26a1.54,1.54,0,1,0,0,3.07A1.72,1.72,0,0,1,59,129.86h0a15.37,15.37,0,0,1-.87,8.61l-3.15,7.71a12.63,12.63,0,0,0-.5,10.7,12.15,12.15,0,0,0,6,5.94H70a12.15,12.15,0,0,0,6-5.94A12.63,12.63,0,0,0,75.43,146.18Z" transform="translate(0 -10.26)"/><path class="cls-9" d="M93.05,146.18l-3.15-7.71a15.37,15.37,0,0,1-.88-8.61h0a1.73,1.73,0,0,1,1.7-1.41,1.54,1.54,0,1,0,0-3.07H74.87a1.54,1.54,0,0,0,0,3.07,1.73,1.73,0,0,1,1.7,1.41h0a15.29,15.29,0,0,1-.88,8.61l-3.15,7.71a12.65,12.65,0,0,0-.49,10.7A12.15,12.15,0,0,0,78,162.82H87.6a12.15,12.15,0,0,0,5.94-5.94A12.65,12.65,0,0,0,93.05,146.18Z" transform="translate(0 -10.26)"/><path class="cls-9" d="M356.21,62.89c-2.38-3.5,0-7.26,0-7.26H341.55s2.38,3.76,0,7.26-4,12.8,7.27,12.88H349C360.22,75.69,358.58,66.38,356.21,62.89Z" transform="translate(0 -10.26)"/><polyline class="cls-10" points="346.75 66.65 361.43 41.73 361.43 65.71"/><polyline class="cls-10" points="249.89 66.65 264.57 41.73 264.57 65.71"/><rect class="cls-5" x="265.86" y="65.11" width="96.76" height="5.12"/><path class="cls-11" d="M277.14,62.89c-2.37-3.5,0-7.26,0-7.26H262.48s2.38,3.76,0,7.26-4,12.8,7.27,12.88h.13C281.15,75.69,279.51,66.38,277.14,62.89Z" transform="translate(0 -10.26)"/><path class="cls-9" d="M289.91,62.89c-2.38-3.5,0-7.26,0-7.26H275.25s2.38,3.76,0,7.26-4,12.8,7.26,12.88h.14C293.92,75.69,292.28,66.38,289.91,62.89Z" transform="translate(0 -10.26)"/><path class="cls-9" d="M312,62.89c-2.38-3.5,0-7.26,0-7.26H297.35s2.38,3.76,0,7.26-4,12.8,7.26,12.88h.14C316,75.69,314.38,66.38,312,62.89Z" transform="translate(0 -10.26)"/><path class="cls-4" d="M303,62.89c-2.37-3.5,0-7.26,0-7.26H288.3s2.38,3.76,0,7.26-4,12.8,7.27,12.88h.13C307,75.69,305.33,66.38,303,62.89Z" transform="translate(0 -10.26)"/><path class="cls-9" d="M334.11,62.89c-2.38-3.5,0-7.26,0-7.26H319.45s2.38,3.76,0,7.26-4,12.8,7.26,12.88h.14C338.12,75.69,336.48,66.38,334.11,62.89Z" transform="translate(0 -10.26)"/><path class="cls-4" d="M346.17,229c-2.38-3.5,0-7.27,0-7.27H331.51s2.37,3.77,0,7.27-4,12.79,7.26,12.87h.13C350.18,241.74,348.53,232.43,346.17,229Z" transform="translate(0 -10.26)"/><path class="cls-4" d="M364.8,229c-2.38-3.5,0-7.27,0-7.27H350.14s2.38,3.77,0,7.27-4,12.79,7.27,12.87h.13C368.81,241.74,367.17,232.43,364.8,229Z" transform="translate(0 -10.26)"/><path class="cls-9" d="M343.69,26.36a10.23,10.23,0,0,1,0-7.26h-9.55a10.23,10.23,0,0,1,0,7.26c-1.54,3.49-2.61,12.8,4.73,12.88H339C346.3,39.16,345.23,29.85,343.69,26.36Z" transform="translate(0 -10.26)"/><polyline class="cls-10" points="346.75 30.13 361.43 5.2 361.43 29.18"/><polyline class="cls-10" points="249.89 30.13 264.57 5.2 264.57 29.18"/><rect class="cls-5" x="265.86" y="28.59" width="96.76" height="5.12"/><path class="cls-11" d="M270.21,26.36a10.29,10.29,0,0,1,0-7.26h-9.55a10.23,10.23,0,0,1,0,7.26c-1.54,3.49-2.61,12.8,4.74,12.88h.08C272.83,39.16,271.76,29.85,270.21,26.36Z" transform="translate(0 -10.26)"/><path class="cls-9" d="M283.44,26.36a10.23,10.23,0,0,1,0-7.26h-9.55a10.23,10.23,0,0,1,0,7.26c-1.55,3.49-2.62,12.8,4.73,12.88h.09C286.05,39.16,285,29.85,283.44,26.36Z" transform="translate(0 -10.26)"/><path class="cls-9" d="M310.24,26.36a10.23,10.23,0,0,1,0-7.26h-9.55a10.23,10.23,0,0,1,0,7.26c-1.54,3.49-2.61,12.8,4.73,12.88h.09C312.86,39.16,311.79,29.85,310.24,26.36Z" transform="translate(0 -10.26)"/><path class="cls-4" d="M299.53,26.36a10.23,10.23,0,0,1,0-7.26H290a10.23,10.23,0,0,1,0,7.26c-1.54,3.49-2.62,12.8,4.73,12.88h.09C302.14,39.16,301.07,29.85,299.53,26.36Z" transform="translate(0 -10.26)"/><path class="cls-9" d="M325.58,26.36a10.23,10.23,0,0,1,0-7.26H316a10.23,10.23,0,0,1,0,7.26c-1.54,3.49-2.61,12.8,4.73,12.88h.09C328.2,39.16,327.12,29.85,325.58,26.36Z" transform="translate(0 -10.26)"/><rect class="cls-8" x="248.05" y="28.59" width="96.76" height="5.12"/><rect class="cls-8" x="248.05" y="65.11" width="96.76" height="5.12"/><path class="cls-9" d="M343.69,97.73a10.23,10.23,0,0,1,0-7.26h-9.55a10.23,10.23,0,0,1,0,7.26c-1.54,3.49-2.61,12.8,4.73,12.87H339C346.3,110.53,345.23,101.22,343.69,97.73Z" transform="translate(0 -10.26)"/><polyline class="cls-10" points="346.75 101.49 361.43 76.56 361.43 100.55"/><polyline class="cls-10" points="249.89 101.49 264.57 76.56 264.57 100.55"/><rect class="cls-5" x="265.86" y="99.95" width="96.76" height="5.12"/><path class="cls-11" d="M270.21,97.73a10.29,10.29,0,0,1,0-7.26h-9.55a10.23,10.23,0,0,1,0,7.26c-1.54,3.49-2.61,12.8,4.74,12.87h.08C272.83,110.53,271.76,101.22,270.21,97.73Z" transform="translate(0 -10.26)"/><path class="cls-9" d="M283.44,97.73a10.23,10.23,0,0,1,0-7.26h-9.55a10.23,10.23,0,0,1,0,7.26c-1.55,3.49-2.62,12.8,4.73,12.87h.09C286.05,110.53,285,101.22,283.44,97.73Z" transform="translate(0 -10.26)"/><path class="cls-9" d="M310.24,97.73a10.23,10.23,0,0,1,0-7.26h-9.55a10.23,10.23,0,0,1,0,7.26c-1.54,3.49-2.61,12.8,4.73,12.87h.09C312.86,110.53,311.79,101.22,310.24,97.73Z" transform="translate(0 -10.26)"/><path class="cls-4" d="M299.53,97.73a10.23,10.23,0,0,1,0-7.26H290a10.23,10.23,0,0,1,0,7.26c-1.54,3.49-2.62,12.8,4.73,12.87h.09C302.14,110.53,301.07,101.22,299.53,97.73Z" transform="translate(0 -10.26)"/><path class="cls-9" d="M325.58,97.73a10.23,10.23,0,0,1,0-7.26H316a10.23,10.23,0,0,1,0,7.26c-1.54,3.49-2.61,12.8,4.73,12.87h.09C328.2,110.53,327.12,101.22,325.58,97.73Z" transform="translate(0 -10.26)"/><rect class="cls-8" x="248.05" y="99.95" width="96.76" height="5.12"/><path class="cls-12" d="M210.41,312.33c0,1.67-31,3-69.21,3S72,314,72,312.33s31-3,69.2-3S210.41,310.65,210.41,312.33Z" transform="translate(0 -10.26)"/><path class="cls-12" d="M113.6,320.7c0,.75-13.88,1.36-31,1.36s-31-.61-31-1.36,13.88-1.36,31-1.36S113.6,320,113.6,320.7Z" transform="translate(0 -10.26)"/><path class="cls-12" d="M335.05,312.33c0,.75-10.44,1.36-23.31,1.36s-23.31-.61-23.31-1.36S298.86,311,311.74,311,335.05,311.58,335.05,312.33Z" transform="translate(0 -10.26)"/><path class="cls-12" d="M370,280c0,.76-10.43,1.36-23.31,1.36s-23.3-.6-23.3-1.36,10.43-1.35,23.3-1.35S370,279.22,370,280Z" transform="translate(0 -10.26)"/><ellipse class="cls-12" cx="260.69" cy="286.04" rx="69.21" ry="3.03"/><rect class="cls-6" x="327.3" y="223.07" width="39.97" height="26.86"/><rect class="cls-7" x="343.2" y="223.07" width="24.07" height="26.86"/></g><path class="cls-13" d="M288.54,179.14v27a7.22,7.22,0,0,0,2.84,5.73v4.59h14.84v-4.59a7.22,7.22,0,0,0,2.84-5.73v-27Z" transform="translate(0 -10.26)"/><path class="cls-14" d="M291.38,211.84c1.24-.12,2.47-.17,3.71-.22s2.47-.06,3.71-.07,2.47,0,3.71.07,2.47.1,3.71.22c-1.24.12-2.47.17-3.71.22s-2.47.06-3.71.06-2.47,0-3.71-.06S292.62,212,291.38,211.84Z" transform="translate(0 -10.26)"/><path class="cls-14" d="M288.82,181.58c1.69-.12,3.38-.17,5.06-.22s3.37,0,5.06-.07,3.37,0,5.06.07,3.37.1,5.06.22c-1.69.11-3.37.17-5.06.22s-3.37,0-5.06.06-3.37,0-5.06-.07S290.51,181.69,288.82,181.58Z" transform="translate(0 -10.26)"/><path class="cls-15" d="M301.08,187.45c-.73-.22-4.15-9.15-.91-8.93s-.08,3.8,1,8.16" transform="translate(0 -10.26)"/><path class="cls-16" d="M266,297.45c13.44,0,23.73,2.75,22.51-5.19s-27.05-22.07-12.91-33.77,22.16-45.58.17-46.69" transform="translate(0 -10.26)"/><rect class="cls-17" x="244.42" y="194.72" width="32.55" height="11.09"/><path class="cls-18" d="M204.43,199.74c0,14.31-28.62,42,1.75,46.59H201.1c-30.37-4.54-1.75-32.28-1.75-46.59Z" transform="translate(0 -10.26)"/><path class="cls-19" d="M201.1,246.33c-30.37-4.54-1.75-32.28-1.75-46.59" transform="translate(0 -10.26)"/><rect class="cls-20" x="192.95" y="170.5" width="20.29" height="21.21"/><rect class="cls-21" x="192.86" y="170.5" width="1.75" height="21.21"/><ellipse class="cls-22" cx="201.71" cy="176.48" rx="0.61" ry="1.31"/><ellipse class="cls-22" cx="205.11" cy="176.48" rx="0.61" ry="1.31"/><ellipse class="cls-22" cx="201.71" cy="184.84" rx="0.61" ry="1.31"/><ellipse class="cls-22" cx="205.11" cy="184.84" rx="0.61" ry="1.31"/><path class="cls-23" d="M266.57,184.43l2,2.49s-.88.89-2.27,2.23c-.94-1.07-1.88-2.13-2.83-3.15Z" transform="translate(0 -10.26)"/><path class="cls-24" d="M234,169.35c1.63.74,4.86,5,8,9.73.95,1.4,1.89,2.83,2.78,4.22,3.19,5,5.78,9.33,5.78,9.33L263.51,186c.95,1,3.67,3.86,4.61,4.93-4.25,4.14-15.05,10.84-17.84,11.33-2.18.37-18-15.26-18-15.26S225.38,165.1,234,169.35Z" transform="translate(0 -10.26)"/><path class="cls-25" d="M265.87,185.19s-.45-3.49,5.32-4.81c3.66-1.4,2.67.15-.17,1.67,9.84-3.4,9.11-1,2.89.91,7.32-1.82,7.17,0,1.85,1.58,6.8-1.52,5.25.81.66,1.64,6.43-.43,1.17,1.63-2.08,1.91s-6.84,1.28-7.5-.05" transform="translate(0 -10.26)"/><path class="cls-14" d="M272.91,186.68a5.22,5.22,0,0,1,1-.35,8.56,8.56,0,0,1,1-.19,7,7,0,0,1,1-.07,5.37,5.37,0,0,1,1.05.08,5.58,5.58,0,0,1-1,.35,8.59,8.59,0,0,1-1,.2c-.34,0-.67.07-1,.07A4.62,4.62,0,0,1,272.91,186.68Z" transform="translate(0 -10.26)"/><path class="cls-14" d="M273.39,185.17a2.68,2.68,0,0,1,.64-.39,3.15,3.15,0,0,1,.67-.24,4.1,4.1,0,0,1,.7-.12,2.67,2.67,0,0,1,.74,0,3,3,0,0,1-.63.39,4.49,4.49,0,0,1-.67.24,4,4,0,0,1-.71.11A2.66,2.66,0,0,1,273.39,185.17Z" transform="translate(0 -10.26)"/><path class="cls-14" d="M272.79,183.27a1.5,1.5,0,0,1,.43-.34,1.86,1.86,0,0,1,.46-.19,2,2,0,0,1,.49-.06,1.69,1.69,0,0,1,.53.09,1.46,1.46,0,0,1-.42.34,2,2,0,0,1-.46.18,1.63,1.63,0,0,1-.5.06A1.46,1.46,0,0,1,272.79,183.27Z" transform="translate(0 -10.26)"/><path class="cls-14" d="M271,182.05a1.5,1.5,0,0,1,.45,1.06,1.67,1.67,0,0,1-.42,1.15,2.56,2.56,0,0,1-1,.69c-.18.06-.36.14-.54.18a5.58,5.58,0,0,1-.57.08c.31-.24.61-.43.9-.64a4.72,4.72,0,0,0,.73-.67A2,2,0,0,0,271,182.05Z" transform="translate(0 -10.26)"/><path class="cls-14" d="M273,187.29c-.07-.41-.09-.81-.13-1.2l-.08-1.18c0-.39-.06-.77-.1-1.15a6.35,6.35,0,0,0-.25-1.16,2.32,2.32,0,0,1,.67,1.06,4.57,4.57,0,0,1,.25,1.21,6.27,6.27,0,0,1,0,1.23A4.44,4.44,0,0,1,273,187.29Z" transform="translate(0 -10.26)"/><path class="cls-13" d="M250.43,165.78v27a7.21,7.21,0,0,0,2.84,5.73v4.59h14.84v-4.59a7.18,7.18,0,0,0,2.84-5.73v-27Z" transform="translate(0 -10.26)"/><polygon class="cls-26" points="221.64 286.91 221.21 238.67 225.31 238.67 226.5 286.91 221.64 286.91"/><polygon class="cls-26" points="198.31 286.91 201.54 238.67 205.64 238.67 203.17 286.91 198.31 286.91"/><polygon class="cls-27" points="212.5 286.91 213.5 238.67 217.6 238.67 217.36 286.91 212.5 286.91"/><polygon class="cls-27" points="233.62 286.91 231.31 238.67 235.41 238.67 238.47 286.91 233.62 286.91"/><rect class="cls-28" x="218.08" y="235.98" width="20.29" height="5.38"/><rect class="cls-20" x="214.47" y="232.88" width="27.52" height="3.1"/><rect class="cls-18" x="199.45" y="235.98" width="20.29" height="5.38"/><rect class="cls-21" x="195.83" y="232.88" width="27.52" height="3.1"/><rect class="cls-27" x="218.07" y="257.26" width="76.19" height="5.38" transform="translate(516.11 -6.47) rotate(90)"/><path class="cls-25" d="M231.56,276.12l-2.09,11s5.73-.82,5.69-1.08,1.22-6.84,1.22-6.84" transform="translate(0 -10.26)"/><path class="cls-29" d="M229.83,284.3a12.73,12.73,0,0,0-.67,8.28c.72,1.51,4.61,2.29,5.7,3.39s9.88,2.62,10.93-.63c1.88-5.8-9.14-6.22-9.94-11.43C234,286.39,229.83,284.3,229.83,284.3Z" transform="translate(0 -10.26)"/><path class="cls-14" d="M240.22,291.92a9.76,9.76,0,0,1-2.32-.89,10.73,10.73,0,0,1-2.08-1.41,8.32,8.32,0,0,1-1.61-1.94,5.7,5.7,0,0,1-.74-2.39,9.27,9.27,0,0,0,1.1,2.15,12.37,12.37,0,0,0,1.63,1.76A23.05,23.05,0,0,0,240.22,291.92Z" transform="translate(0 -10.26)"/><path class="cls-14" d="M236.7,285.69c-.25.12-.48.21-.71.31l-.66.29-.66.29c-.23.09-.44.22-.71.32a2.07,2.07,0,0,1,1.14-1.13,2,2,0,0,1,.8-.19A1.68,1.68,0,0,1,236.7,285.69Z" transform="translate(0 -10.26)"/><path class="cls-14" d="M237.71,287.09c-.46.24-.89.37-1.29.55-.19.09-.38.18-.56.28a3,3,0,0,0-.52.45,1,1,0,0,1,.22-.76,1.62,1.62,0,0,1,.64-.49A2,2,0,0,1,237,287,1.77,1.77,0,0,1,237.71,287.09Z" transform="translate(0 -10.26)"/><path class="cls-14" d="M239.28,288.16a12,12,0,0,1-1.31.75,2.93,2.93,0,0,0-1.11.86,1,1,0,0,1,.21-.81,1.66,1.66,0,0,1,.64-.54,2.08,2.08,0,0,1,.76-.26A2.21,2.21,0,0,1,239.28,288.16Z" transform="translate(0 -10.26)"/><path class="cls-14" d="M241.27,289.34a3.77,3.77,0,0,1-.64.51c-.21.16-.44.29-.65.42l-.66.38a2.93,2.93,0,0,0-.62.46,1.08,1.08,0,0,1,.34-.79,2.6,2.6,0,0,1,.65-.54,3.4,3.4,0,0,1,.76-.32A2.76,2.76,0,0,1,241.27,289.34Z" transform="translate(0 -10.26)"/><path class="cls-30" d="M237.91,295.37c-.95,0-6.2-2.11-9.06-4.36a10.12,10.12,0,0,0,.31,1.57c.72,1.51,4.61,2.29,5.7,3.39s9.88,2.62,10.93-.63c.63-1.94-.19-3.28-1.59-4.4C241.32,290.58,238.56,293.15,237.91,295.37Z" transform="translate(0 -10.26)"/><polygon class="cls-25" points="247.15 269.48 246.5 274.69 252.03 275.64 253.52 269.74 247.15 269.48"/><path class="cls-29" d="M246.5,283.36s-2.39,4.25-1.17,6.77a72.33,72.33,0,0,0,11.45,2.09,11.87,11.87,0,0,0,9.22-4.7c-1.69-4.23-6.46-4.12-9.88-3.12s-3.26-2-3.26-2S249.26,284.45,246.5,283.36Z" transform="translate(0 -10.26)"/><path class="cls-14" d="M259.36,286.54a12.75,12.75,0,0,1-2.72.68,10.79,10.79,0,0,1-2.84,0,4.67,4.67,0,0,1-2.65-1.13,2,2,0,0,1-.46-.57,2,2,0,0,1-.2-.31l-.12-.35a3.7,3.7,0,0,1-.14-1.4,3.47,3.47,0,0,0,1.21,2.3,4.91,4.91,0,0,0,2.44.89A23,23,0,0,0,259.36,286.54Z" transform="translate(0 -10.26)"/><path class="cls-14" d="M253.6,284c-.22.17-.43.31-.63.45l-.58.43-.57.43c-.2.15-.38.32-.62.47a2,2,0,0,1,.86-1.35,2.19,2.19,0,0,1,.73-.37A1.7,1.7,0,0,1,253.6,284Z" transform="translate(0 -10.26)"/><path class="cls-14" d="M254.24,284.66c-.17.49-.4.88-.57,1.28a4.24,4.24,0,0,0-.23.59,2.31,2.31,0,0,0-.08.68,1,1,0,0,1-.35-.71,1.51,1.51,0,0,1,.14-.79,2.06,2.06,0,0,1,.45-.63A1.83,1.83,0,0,1,254.24,284.66Z" transform="translate(0 -10.26)"/><path class="cls-14" d="M256.13,284.4a13.39,13.39,0,0,1-.46,1.43,2.77,2.77,0,0,0-.24,1.38,1,1,0,0,1-.4-.73,1.9,1.9,0,0,1,.1-.83,2.37,2.37,0,0,1,.4-.71A2,2,0,0,1,256.13,284.4Z" transform="translate(0 -10.26)"/><path class="cls-14" d="M258.39,283.92a4.15,4.15,0,0,1-.13.81c-.05.26-.13.51-.2.75l-.23.73a2.57,2.57,0,0,0-.14.76,1.16,1.16,0,0,1-.29-.82,2.53,2.53,0,0,1,.12-.83,3.38,3.38,0,0,1,.34-.75A2.75,2.75,0,0,1,258.39,283.92Z" transform="translate(0 -10.26)"/><path class="cls-30" d="M266,287.52c-1.07-2.68-3.38-3.62-5.8-3.69a9.55,9.55,0,0,0-.71,6.34c-4.84,1.6-12.14-1-14.44-2.12a3.81,3.81,0,0,0,.28,2.08,72.33,72.33,0,0,0,11.45,2.09A11.87,11.87,0,0,0,266,287.52Z" transform="translate(0 -10.26)"/><path class="cls-22" d="M218.81,217.32c-6.58,13.38-5.93,23.8,16.87,23.12,11,.46,16.21.91,16.21.91l-6.6,40.26h10.56s16-48.65,8.88-52.28-27.64-4.53-27.64-4.53L235,218.22Z" transform="translate(0 -10.26)"/><path class="cls-22" d="M202.36,219.63c-1.68,20-5.93,23.81,16.87,23.13,11,.45,16.21.9,16.21.9l-6.6,36.54H239.4s16-44.92,8.89-48.55-27.65-4.54-27.65-4.54l-2.09-6.57Z" transform="translate(0 -10.26)"/><path class="cls-14" d="M249.87,241.19a34.16,34.16,0,0,0,.11-4.52,14.79,14.79,0,0,0-.26-2.22,4.84,4.84,0,0,0-.83-2,2.13,2.13,0,0,0-.79-.64l-1-.45c-.71-.25-1.41-.51-2.13-.71-1.44-.43-2.91-.74-4.38-1-2.95-.6-5.94-1-8.94-1.4-1.49-.19-3-.36-4.49-.52s-3-.34-4.51-.48q4.53.14,9.05.57c3,.3,6,.72,9,1.28,1.48.31,3,.64,4.42,1.1.73.2,1.44.48,2.16.75l1.05.48a2.62,2.62,0,0,1,.93.79,5.29,5.29,0,0,1,.83,2.19,13.48,13.48,0,0,1,.18,2.28A32.7,32.7,0,0,1,249.87,241.19Z" transform="translate(0 -10.26)"/><polygon class="cls-31" points="259.89 282.44 259.89 286.91 247.08 286.17 259.89 282.44"/><rect class="cls-32" x="247.07" y="286.19" width="19.51" height="2.01"/><rect class="cls-33" x="246.61" y="292.54" width="19.51" height="1.58" transform="translate(-62.74 59.6) rotate(-13.84)"/><path class="cls-34" d="M202.67,213s-7.06.6-9.08,3.3l1.08,2.9a22.89,22.89,0,0,0,3.06-1.06,22.52,22.52,0,0,0,6.18-4Z" transform="translate(0 -10.26)"/><path class="cls-35" d="M202.67,213s-7.06.6-9.08,3.3l1.08,2.9s2.76-3.24,9.24-5A2.93,2.93,0,0,0,202.67,213Z" transform="translate(0 -10.26)"/><path class="cls-34" d="M203.75,213.13s-5.28-4.73-8.63-4.35l-1.37,2.77a21.34,21.34,0,0,0,2.88,1.51,22.69,22.69,0,0,0,7.12,1.78Z" transform="translate(0 -10.26)"/><path class="cls-35" d="M203.75,213.13s-5.28-4.73-8.63-4.35l-1.37,2.77s4.25-.2,10,3.29A3,3,0,0,0,203.75,213.13Z" transform="translate(0 -10.26)"/><path class="cls-24" d="M200.56,194.61c-1.21-14.61-1.54-24.9,7.77-27.09a11.06,11.06,0,0,0,2.4-.88c9-1.1,12.08,0,22.86,2.27,5.4,2.79.84,53.66.84,53.66l-33-1.08S201.79,209.38,200.56,194.61Z" transform="translate(0 -10.26)"/><path class="cls-35" d="M204.62,215.47h-3.13a3.88,3.88,0,0,1-.39-3.34h1.74l3.48,0c12.53-17,5.88-39.34,4.41-45.52a3.72,3.72,0,0,1,2.83-.43c1.55,4.76,5.36,17.65,5.36,17.65h13.69c1-6-.86-12.13-2.21-15.84,1.12.26,1.12.26,1.84.41a5,5,0,0,1,.93.29c1.52,4,4.24,12.22,3.66,19.5-.33,5.68-2.13,23.35,1.54,28.39,8,8.82,17.28-.47,25.54,7.94,4.87,4.95,5.14,12.76,4.44,19.06-1.7,2.23-4.39,5-8.16,5.63s-6.06-1.05-9.33-1.85c-3.76-.92-9.41-.87-17.5,3.78,0-5.37,2.55-7.46-.17-12.33-4.79-8.55-5.9-8-9.4-9.91-5.32-2.85-8.81-1.81-13.94-4.87C206.65,222.14,205.28,218.45,204.62,215.47Z" transform="translate(0 -10.26)"/><path class="cls-14" d="M250.12,244.69c.21-2.18.53-4.36.69-6.54a17,17,0,0,0-.46-6.44c-.66-2.05-2.37-3.55-4.06-4.88a42.49,42.49,0,0,0-5.52-3.49,64.13,64.13,0,0,0-12-5.11,18.36,18.36,0,0,0-3.17-.71,32.3,32.3,0,0,0-3.27-.09,23.34,23.34,0,0,0-6.49.81,23.72,23.72,0,0,1,6.49-1.09,30.29,30.29,0,0,1,3.3,0,18.62,18.62,0,0,1,3.26.64,61.83,61.83,0,0,1,12.2,5,42.78,42.78,0,0,1,5.56,3.58,20.14,20.14,0,0,1,2.46,2.25,7.44,7.44,0,0,1,1.69,2.9,16.76,16.76,0,0,1,.32,6.61C250.83,240.36,250.42,242.52,250.12,244.69Z" transform="translate(0 -10.26)"/><rect class="cls-26" x="201.85" y="257.26" width="76.19" height="5.38" transform="translate(499.89 9.75) rotate(90)"/><rect class="cls-26" x="265.17" y="257.26" width="76.19" height="5.38" transform="translate(563.21 -53.57) rotate(90)"/><rect class="cls-27" x="283.25" y="257.26" width="76.19" height="5.38" transform="translate(581.3 -71.66) rotate(90)"/><rect class="cls-28" x="251.59" y="208.91" width="76.19" height="5.38"/><rect class="cls-20" x="247.98" y="205.81" width="83.42" height="3.1"/><rect class="cls-18" x="232.96" y="208.91" width="76.19" height="5.38"/><rect class="cls-21" x="229.35" y="205.81" width="83.42" height="3.1"/><path class="cls-25" d="M218.6,155l-1.9,12.8a13.57,13.57,0,0,0,11.39,2.16l1.45-9.77Z" transform="translate(0 -10.26)"/><path class="cls-25" d="M215.27,143.28c-2,7.09-.41,20.67,12.94,22.39,8.64,1.12,9.27-2.77,10.32-7.93s8.9-18-3.07-24.13C227.73,129.65,217,127.25,215.27,143.28Z" transform="translate(0 -10.26)"/><ellipse class="cls-36" cx="235.7" cy="153.08" rx="3.91" ry="3.01" transform="translate(24.77 328.55) rotate(-74.37)"/><g class="cls-37"><path class="cls-14" d="M239.16,155.09c-.52,1.87-2.12,3.06-3.56,2.66s-2.18-2.25-1.66-4.12,2.12-3.06,3.56-2.66S239.68,153.22,239.16,155.09Z" transform="translate(0 -10.26)"/></g><path class="cls-25" d="M240.15,152.72c-.14.56-.31,1.32-.47,2.06a4.38,4.38,0,0,0,.1,2.69c.33.61.59,2.37-1.62,2.32a.72.72,0,0,1-1-.29" transform="translate(0 -10.26)"/><path class="cls-14" d="M240.15,152.72c-.06.71-.16,1.41-.28,2.1a6.72,6.72,0,0,0,0,2,2,2,0,0,0,.14.43,2.43,2.43,0,0,1,.2.54,1.94,1.94,0,0,1,0,1.19,1.42,1.42,0,0,1-.88.83,2.65,2.65,0,0,1-1.11.11l.07,0a1,1,0,0,1-.67,0,.73.73,0,0,1-.43-.45.73.73,0,0,0,.47.31.74.74,0,0,0,.5-.13h.07a2.7,2.7,0,0,0,1-.22,1.06,1.06,0,0,0,.55-.63,1.65,1.65,0,0,0,0-.88,2,2,0,0,0-.19-.44,2.47,2.47,0,0,1-.17-.57,4.83,4.83,0,0,1,.18-2.18C239.68,154.06,239.89,153.38,240.15,152.72Z" transform="translate(0 -10.26)"/><path class="cls-14" d="M233,160.17a7.85,7.85,0,0,0,.26,1,1.54,1.54,0,0,0,.44.68c.16.13.37.1.64-.05a9.41,9.41,0,0,0,.79-.61,2.08,2.08,0,0,1-.52.95,1.12,1.12,0,0,1-.54.32.93.93,0,0,1-.69-.14,1.45,1.45,0,0,1-.54-1.05A1.9,1.9,0,0,1,233,160.17Z" transform="translate(0 -10.26)"/><path class="cls-14" d="M218.46,159.8a12.21,12.21,0,0,0,2,2.27,14.56,14.56,0,0,0,2.45,1.75A15.82,15.82,0,0,0,225.7,165a25.67,25.67,0,0,0,3,.77c-.51,0-1,0-1.55-.07a13.27,13.27,0,0,1-1.53-.28,11.43,11.43,0,0,1-2.92-1.14,10.55,10.55,0,0,1-2.47-1.93A8.13,8.13,0,0,1,218.46,159.8Z" transform="translate(0 -10.26)"/><path class="cls-38" d="M245.52,141.65c.32-5.54-4.72-10.59-9.39-12.53-1.77-.74-3.43-.93-6.76-1.32-2.56-.3-7.19-.84-7.78.63A1.8,1.8,0,0,0,222,130a9.54,9.54,0,0,0-5.39,2.12c-1.47,1.25-2.66,3.16-2.34,3.49.15.16.44.85,2.29-1-5.68,5.71-5.69,10.73-4.9,11.34.29.22.93,0,1.91-.66-3.82,11.57,2.67,12.29,2.67,12.29,4.47-2.93,3.08-11.66,6.64-10.66,2.13.6,1.84,3.78,1.26,6.24a8.37,8.37,0,0,1,1.51.06,3.61,3.61,0,0,1,1.58-1.92c.94-.5,1.56-.15,2.25-.73,1.93-1.61-.11-6.57.71-6.89.64-.25,1.81,2.9,3.4,2.88,1.39,0,2.49-2.46,3.19-4.45,1,3.7,3.29,6,5.14,5.78C244.1,147.67,245.38,144.14,245.52,141.65Z" transform="translate(0 -10.26)"/><path class="cls-25" d="M223.88,148.47c-3.72-7.95-9.62,8.48-1.89,8.15" transform="translate(0 -10.26)"/><path class="cls-14" d="M223.62,139.34a6,6,0,0,1,2.17.65,5.39,5.39,0,0,1,1.78,1.48,4.19,4.19,0,0,1,.87,2.16,5.53,5.53,0,0,1,0,1.15,8.13,8.13,0,0,1-.25,1.11,8.2,8.2,0,0,0-.2-2.18,4.69,4.69,0,0,0-.89-1.9,6.66,6.66,0,0,0-1.55-1.44A11,11,0,0,0,223.62,139.34Z" transform="translate(0 -10.26)"/><path class="cls-14" d="M230.22,136.57a11.08,11.08,0,0,1,2.35.38,7.37,7.37,0,0,1,2.19,1,5,5,0,0,1,1.63,1.81,4.39,4.39,0,0,1,.43,2.35A6.42,6.42,0,0,0,236,140a5.83,5.83,0,0,0-1.57-1.56,11.08,11.08,0,0,0-2-1.06C231.71,137.06,231,136.85,230.22,136.57Z" transform="translate(0 -10.26)"/><path class="cls-14" d="M233.12,133.8a11,11,0,0,1,2.82.69,10.6,10.6,0,0,1,2.58,1.4,7.78,7.78,0,0,1,1.95,2.21,6,6,0,0,1,.74,2.82,8.46,8.46,0,0,0-1.11-2.59,9.58,9.58,0,0,0-1.93-2,16.11,16.11,0,0,0-2.4-1.45A23,23,0,0,0,233.12,133.8Z" transform="translate(0 -10.26)"/><path class="cls-14" d="M227.15,138.13a2.35,2.35,0,0,1,1.12-.51,2.14,2.14,0,0,1,1.29.16,1.93,1.93,0,0,1,.91.94,3.57,3.57,0,0,1,.21.6c0,.21,0,.41,0,.62a8.41,8.41,0,0,0-.62-1,2.31,2.31,0,0,0-.78-.66A3.8,3.8,0,0,0,227.15,138.13Z" transform="translate(0 -10.26)"/><path class="cls-14" d="M223.92,141.26a8.19,8.19,0,0,1,1.35,1.28,8.27,8.27,0,0,1,1.08,1.53,5.53,5.53,0,0,1,.66,1.78,3,3,0,0,1-.16,1.86,4.51,4.51,0,0,0-.26-1.76,9.33,9.33,0,0,0-.74-1.61C225.28,143.29,224.59,142.31,223.92,141.26Z" transform="translate(0 -10.26)"/><path class="cls-14" d="M220.55,143.14a17.57,17.57,0,0,0-1.49,1.76,15.56,15.56,0,0,0-1.21,1.93,12.81,12.81,0,0,0-.9,2.08,17.89,17.89,0,0,0-.56,2.24,7.43,7.43,0,0,1,.14-2.35,8.27,8.27,0,0,1,.82-2.24,8.81,8.81,0,0,1,1.38-1.93A7.43,7.43,0,0,1,220.55,143.14Z" transform="translate(0 -10.26)"/><path class="cls-14" d="M218.28,141.5c-.78,2-1.58,3.94-2.22,5.94a24.51,24.51,0,0,0-.82,3,8.88,8.88,0,0,0-.15,3.13,6.64,6.64,0,0,1-.28-3.19,15.35,15.35,0,0,1,.71-3.14,23.05,23.05,0,0,1,1.2-3A21.81,21.81,0,0,1,218.28,141.5Z" transform="translate(0 -10.26)"/><path class="cls-14" d="M220.19,138.38a19,19,0,0,0-3.85,3.23,16.36,16.36,0,0,0-1.56,2c-.49.68-.88,1.43-1.32,2.17a10.09,10.09,0,0,1,.95-2.4,10.42,10.42,0,0,1,1.51-2.11,10.66,10.66,0,0,1,2-1.7A8.69,8.69,0,0,1,220.19,138.38Z" transform="translate(0 -10.26)"/><path class="cls-14" d="M216.65,134.71a4.9,4.9,0,0,1,1-1.06,5.8,5.8,0,0,1,1.22-.79,4,4,0,0,1,1.41-.41,2.53,2.53,0,0,1,1.44.26,5.52,5.52,0,0,0-2.61.66C218.26,133.75,217.49,134.24,216.65,134.71Z" transform="translate(0 -10.26)"/><path class="cls-14" d="M227.33,130.06a12.46,12.46,0,0,1-1.69.47,9.3,9.3,0,0,1-1.76.19,3.31,3.31,0,0,1-1.79-.42,1.39,1.39,0,0,1-.59-.76,1.75,1.75,0,0,1,0-.91,1.5,1.5,0,0,0,.8,1.29,3.91,3.91,0,0,0,1.58.23c.56,0,1.13,0,1.71-.06S226.74,130,227.33,130.06Z" transform="translate(0 -10.26)"/><path class="cls-14" d="M222.72,135.41a21.06,21.06,0,0,0-3.51.94,10.54,10.54,0,0,0-1.58.78,8.39,8.39,0,0,0-1.38,1.17,4.11,4.11,0,0,1,1.12-1.51,5.78,5.78,0,0,1,1.64-1,7.37,7.37,0,0,1,1.84-.44A6.51,6.51,0,0,1,222.72,135.41Z" transform="translate(0 -10.26)"/><path class="cls-14" d="M227.34,133.45a16.87,16.87,0,0,1,2.56.3,19.57,19.57,0,0,1,2.51.62,13,13,0,0,1,2.39,1,4.15,4.15,0,0,1,1.86,1.8c-.15-.16-.28-.32-.44-.46s-.33-.26-.51-.37l-.54-.32-.57-.26c-.77-.33-1.56-.63-2.36-.89s-1.62-.49-2.43-.74Z" transform="translate(0 -10.26)"/><path class="cls-14" d="M234.6,131.57a10.16,10.16,0,0,1,2.58.28,10,10,0,0,1,2.47.88,7.31,7.31,0,0,1,2.1,1.61,4.85,4.85,0,0,1,1.1,2.36,6.82,6.82,0,0,0-1.42-2.06,9.63,9.63,0,0,0-2-1.41,16.89,16.89,0,0,0-2.32-1C236.26,132,235.44,131.77,234.6,131.57Z" transform="translate(0 -10.26)"/><path class="cls-25" d="M250.71,184.63,250,181s-2.69,1.3-6.18,3.06a43.23,43.23,0,0,0,2,4.33Z" transform="translate(0 -10.26)"/><path class="cls-25" d="M247.07,182.45a14,14,0,0,1,4.72-6.14c3.24-2.31,2.59-.37.15,1.91,8.79-5.8,8.54-3,2.95.44,6.66-3.52,6.86-1.46,2.07,1.4,6.22-3.08,5.18-.15.93,1.71,6.08-1.78,1.44,1.59-1.63,2.56s-3.81,1.37-6.93,1.4" transform="translate(0 -10.26)"/><line class="cls-25" x1="254.63" y1="172.78" x2="258.41" y2="171.36"/><line class="cls-25" x1="254.81" y1="170.98" x2="257.3" y2="169.63"/><line class="cls-25" x1="253.87" y1="168.97" x2="255.61" y2="168.02"/><path class="cls-24" d="M219.8,195.16c-6.55-4.7-8.58-5.13-12.74-8.48-7.07-5.67-4.8-10.94-2.05-13.81,3.66-3.83,8-1.82,13.26,3.6a147.51,147.51,0,0,1,10.91,12.68l17.57-8.25c1.05,1,3.76,5.23,4.69,6.39,0,0-14.49,10-20.13,12C227.13,200.77,223.4,197.75,219.8,195.16Z" transform="translate(0 -10.26)"/><path class="cls-14" d="M204.5,184.27c.83.46,1.63,1,2.42,1.49s1.57,1.07,2.34,1.62,1.52,1.12,2.25,1.72,1.48,1.19,2.17,1.84c-.83-.46-1.63-1-2.42-1.49s-1.57-1.06-2.34-1.61-1.52-1.13-2.25-1.73S205.2,184.92,204.5,184.27Z" transform="translate(0 -10.26)"/><path class="cls-14" d="M215.8,174.12c.88.76,1.71,1.57,2.53,2.39s1.62,1.65,2.41,2.49,1.57,1.7,2.32,2.58,1.51,1.77,2.21,2.69c-.87-.76-1.7-1.57-2.53-2.39s-1.62-1.65-2.41-2.49-1.57-1.7-2.32-2.59S216.51,175,215.8,174.12Z" transform="translate(0 -10.26)"/><path class="cls-14" d="M236.94,185.73c.54-.41,1.1-.76,1.66-1.11s1.15-.67,1.73-1,1.18-.6,1.8-.87a18.85,18.85,0,0,1,1.86-.72c-.53.41-1.1.76-1.66,1.11s-1.15.67-1.73,1-1.18.6-1.79.86A16.86,16.86,0,0,1,236.94,185.73Z" transform="translate(0 -10.26)"/><path class="cls-14" d="M240.25,194.58c.66-.55,1.35-1.05,2.05-1.54s1.4-1,2.12-1.41,1.45-.9,2.2-1.31,1.49-.82,2.27-1.17c-.66.55-1.35,1-2,1.54s-1.41,1-2.13,1.41-1.45.9-2.19,1.31S241,194.22,240.25,194.58Z" transform="translate(0 -10.26)"/><path class="cls-14" d="M253.27,198.48c1.24-.12,2.48-.17,3.71-.22s2.48,0,3.71-.06,2.48,0,3.71.06,2.48.1,3.71.22c-1.23.12-2.47.17-3.71.22s-2.47.06-3.71.06-2.47,0-3.71-.06S254.51,198.6,253.27,198.48Z" transform="translate(0 -10.26)"/><path class="cls-14" d="M250.71,168.22c1.69-.12,3.38-.17,5.06-.22s3.38,0,5.06-.06,3.38,0,5.06.06,3.37.1,5.06.22c-1.69.12-3.37.17-5.06.22s-3.37,0-5.06.06-3.37,0-5.06-.06S252.4,168.34,250.71,168.22Z" transform="translate(0 -10.26)"/><rect class="cls-39" x="242.76" y="192.68" width="35.86" height="3.48"/><path class="cls-40" d="M325.54,188.79a4.1,4.1,0,0,1,2.45-3.48c1-.23,1.15-3,1.15-3,2.25,3.73-2,7-3.15,6.74S325.54,188.79,325.54,188.79Z" transform="translate(0 -10.26)"/><path class="cls-41" d="M320.73,199.15c-5.21,8.55-9.73,15.31-10.1,15.09s3.56-7.35,8.77-15.9,5.56-8.47,5.93-8.24S325.94,190.59,320.73,199.15Z" transform="translate(0 -10.26)"/><rect class="cls-42" x="324.37" y="188.29" width="1.56" height="4.2" transform="translate(146.42 -151.57) rotate(31.33)"/><rect class="cls-43" x="324.37" y="188.82" width="1.56" height="3.14" transform="translate(146.43 -151.58) rotate(31.33)"/><rect class="cls-42" x="324.37" y="189.63" width="1.56" height="1.51" transform="translate(146.42 -151.57) rotate(31.33)"/><path class="cls-41" d="M304,197.15c2.23,9.77,3.69,17.76,3.27,17.86s-2.56-7.75-4.79-17.52-1.91-9.94-1.49-10S301.78,187.38,304,197.15Z" transform="translate(0 -10.26)"/><rect class="cls-42" x="300.29" y="185.69" width="1.56" height="4.2" transform="translate(-34.23 61.42) rotate(-12.85)"/><rect class="cls-43" x="300.29" y="186.22" width="1.56" height="3.14" transform="translate(-34.23 61.42) rotate(-12.85)"/><rect class="cls-42" x="300.29" y="187.03" width="1.56" height="1.51" transform="translate(-34.23 61.42) rotate(-12.85)"/><path class="cls-15" d="M305.27,184c-1.24-3-5.92-9.55-.22-9.55,4.75,0-.3,4.35.36,8.79" transform="translate(0 -10.26)"/><path class="cls-41" d="M307.29,193.91c1.33,9.93,2.06,18,1.63,18.08s-1.84-8-3.17-17.88-1-10.08-.57-10.13S306,184,307.29,193.91Z" transform="translate(0 -10.26)"/><rect class="cls-42" x="304.45" y="182.22" width="1.56" height="4.2" transform="translate(-21.69 31.71) rotate(-7.6)"/><rect class="cls-43" x="304.45" y="182.75" width="1.56" height="3.14" transform="translate(-21.68 31.7) rotate(-7.59)"/><rect class="cls-42" x="304.45" y="183.56" width="1.56" height="1.51" transform="translate(-21.69 31.71) rotate(-7.6)"/><path class="cls-15" d="M309.41,185.46c-.68-.37-3.68-15.09,1.65-12.43,3.58,1.79-2.37,4.15-1.43,11.69" transform="translate(0 -10.26)"/><path class="cls-41" d="M310.31,195.55c.21,10,0,18.14-.4,18.15s-1-8.1-1.16-18.12.14-10.13.57-10.13S310.1,185.53,310.31,195.55Z" transform="translate(0 -10.26)"/><rect class="cls-42" x="308.55" y="183.69" width="1.56" height="4.2" transform="translate(-3.78 -3.81) rotate(-1.19)"/><rect class="cls-43" x="308.55" y="184.22" width="1.56" height="3.14" transform="translate(-3.78 -3.83) rotate(-1.18)"/><rect class="cls-42" x="308.55" y="185.04" width="1.56" height="1.51" transform="translate(-3.78 -3.83) rotate(-1.18)"/><path class="cls-40" d="M320.54,184.77a4.09,4.09,0,0,1,1.31-4.05c.86-.51.23-3.19.23-3.19,3.24,2.9.19,7.31-1,7.37S320.54,184.77,320.54,184.77Z" transform="translate(0 -10.26)"/><path class="cls-44" d="M319,196.08c-2.46,9.71-4.79,17.5-5.21,17.39s1.24-8.06,3.7-17.77,2.82-9.73,3.24-9.62S321.45,186.37,319,196.08Z" transform="translate(0 -10.26)"/><rect class="cls-42" x="319.85" y="184.31" width="1.56" height="4.2" transform="translate(55.55 -83.25) rotate(14.21)"/><rect class="cls-43" x="319.85" y="184.84" width="1.56" height="3.14" transform="translate(55.55 -83.25) rotate(14.21)"/><rect class="cls-42" x="319.85" y="185.65" width="1.56" height="1.51" transform="translate(55.55 -83.25) rotate(14.21)"/><rect class="cls-45" x="301.6" y="190.65" width="19.75" height="15.16"/><path class="cls-46" d="M318.74,208.66c-1.77-1.43-3.67-.26-5.19.69-2,1.26-3.06,1.69-4.24.51-2.22-2.23-4.74-1.62-6.58-1.18-.46.12-.83.2-1.13.25v2a13.71,13.71,0,0,0,1.6-.31c1.68-.41,3.27-.8,4.71.64a3.85,3.85,0,0,0,2.81,1.29,7.78,7.78,0,0,0,3.87-1.51c1.55-1,2.29-1.33,2.91-.83a5.17,5.17,0,0,0,3.85,1.13v-2A3.27,3.27,0,0,1,318.74,208.66Zm0-4.43c-1.77-1.44-3.67-.26-5.19.68-2,1.26-3.06,1.69-4.24.51-2.22-2.23-4.74-1.62-6.58-1.17-.46.11-.83.19-1.13.24v2a13.71,13.71,0,0,0,1.6-.31c1.68-.41,3.27-.79,4.71.65a3.88,3.88,0,0,0,2.81,1.28,7.78,7.78,0,0,0,3.87-1.51c1.55-1,2.29-1.32,2.91-.83a5.13,5.13,0,0,0,3.85,1.13v-2A3.3,3.3,0,0,1,318.74,204.23Z" transform="translate(0 -10.26)"/><path class="cls-4" d="M310.48,283.64c-2.37-3.5,0-7.26,0-7.26H295.82s2.38,3.76,0,7.26-4,12.8,7.27,12.88h.13C314.49,296.44,312.85,287.13,310.48,283.64Z" transform="translate(0 -10.26)"/><path class="cls-4" d="M329.12,283.64c-2.38-3.5,0-7.26,0-7.26H314.46s2.38,3.76,0,7.26-4,12.8,7.26,12.88h.14C333.13,296.44,331.49,287.13,329.12,283.64Z" transform="translate(0 -10.26)"/><rect class="cls-6" x="291.62" y="277.77" width="39.97" height="26.86"/><rect class="cls-7" x="307.52" y="277.77" width="24.07" height="26.86"/><path class="cls-47" d="M172.34,293.05l2.56-6.26a12.44,12.44,0,0,0,.71-7h0a1.41,1.41,0,0,0-1.38-1.15,1.25,1.25,0,1,1,0-2.49h12.86a1.25,1.25,0,0,1,0,2.49,1.4,1.4,0,0,0-1.38,1.15h0a12.44,12.44,0,0,0,.71,7l2.56,6.26a10.24,10.24,0,0,1,.4,8.68,9.88,9.88,0,0,1-4.82,4.82h-7.8a9.88,9.88,0,0,1-4.82-4.82A10.24,10.24,0,0,1,172.34,293.05Z" transform="translate(0 -10.26)"/><path class="cls-35" d="M158.8,164.05l2.56-6.26a12.47,12.47,0,0,0,.71-7h0a1.41,1.41,0,0,0-1.38-1.14,1.25,1.25,0,1,1,0-2.49h12.86a1.25,1.25,0,0,1,0,2.49,1.4,1.4,0,0,0-1.38,1.14h0a12.47,12.47,0,0,0,.71,7l2.56,6.26a10.24,10.24,0,0,1,.4,8.68,9.88,9.88,0,0,1-4.82,4.82h-7.8a9.88,9.88,0,0,1-4.82-4.82A10.24,10.24,0,0,1,158.8,164.05Z" transform="translate(0 -10.26)"/><g class="cls-48"><rect class="cls-31" x="159.46" y="152.07" width="14.85" height="1.43" transform="translate(333.77 295.3) rotate(180)"/><rect class="cls-32" x="159.46" y="156.15" width="14.85" height="1.43" transform="translate(333.77 303.47) rotate(180)"/><rect class="cls-49" x="154.94" y="160.21" width="23.89" height="2.3" transform="translate(333.77 312.45) rotate(180)"/></g><line class="cls-50" x1="173.55" y1="139.4" x2="160.69" y2="139.4"/><path class="cls-51" d="M173.55,149.66c-1.07.12-2.15.17-3.22.22s-2.14.06-3.21.06-2.14,0-3.22-.06-2.14-.1-3.21-.22c1.07-.12,2.14-.17,3.21-.22s2.15-.06,3.22-.06,2.14,0,3.21.06S172.48,149.54,173.55,149.66Z" transform="translate(0 -10.26)"/><path class="cls-52" d="M186.49,293.05l2.55-6.26a12.35,12.35,0,0,0,.71-7h0a1.39,1.39,0,0,0-1.37-1.15,1.25,1.25,0,1,1,0-2.49h12.86a1.25,1.25,0,0,1,0,2.49,1.4,1.4,0,0,0-1.38,1.15h0a12.44,12.44,0,0,0,.71,7l2.55,6.26a10.19,10.19,0,0,1,.41,8.68,9.88,9.88,0,0,1-4.83,4.82h-7.79a9.88,9.88,0,0,1-4.82-4.82A10.24,10.24,0,0,1,186.49,293.05Z" transform="translate(0 -10.26)"/><g class="cls-53"><rect class="cls-31" x="187.15" y="281.07" width="14.85" height="1.43" transform="translate(389.15 553.31) rotate(180)"/><rect class="cls-32" x="187.15" y="285.15" width="14.85" height="1.43" transform="translate(389.15 561.48) rotate(180)"/><rect class="cls-49" x="182.63" y="289.21" width="23.89" height="2.3" transform="translate(389.15 570.45) rotate(180)"/></g><line class="cls-50" x1="201.24" y1="268.4" x2="188.38" y2="268.4"/><path class="cls-51" d="M201.24,278.66c-1.08.12-2.15.17-3.22.22s-2.14.06-3.21.06-2.15,0-3.22-.06-2.14-.1-3.21-.22c1.07-.12,2.14-.17,3.21-.22s2.14-.06,3.22-.06,2.14,0,3.21.06S200.16,278.54,201.24,278.66Z" transform="translate(0 -10.26)"/><g class="cls-54"><rect class="cls-31" x="173" y="281.07" width="14.85" height="1.43" transform="translate(360.85 553.31) rotate(180)"/><rect class="cls-32" x="173" y="285.15" width="14.85" height="1.43" transform="translate(360.85 561.48) rotate(180)"/><rect class="cls-49" x="168.48" y="289.21" width="23.89" height="2.3" transform="translate(360.85 570.45) rotate(180)"/></g><line class="cls-50" x1="187.09" y1="268.4" x2="174.23" y2="268.4"/><path class="cls-51" d="M187.09,278.66c-1.07.12-2.15.17-3.22.22s-2.14.06-3.21.06-2.15,0-3.22-.06-2.14-.1-3.21-.22c1.07-.12,2.14-.17,3.21-.22s2.15-.06,3.22-.06,2.14,0,3.21.06S186,278.54,187.09,278.66Z" transform="translate(0 -10.26)"/><path class="cls-52" d="M162.09,293.05l2.55-6.26a12.44,12.44,0,0,0,.72-7h0a1.41,1.41,0,0,0-1.38-1.15,1.25,1.25,0,1,1,0-2.49h12.86a1.25,1.25,0,0,1,0,2.49,1.4,1.4,0,0,0-1.38,1.15h0a12.44,12.44,0,0,0,.71,7l2.56,6.26a10.24,10.24,0,0,1,.4,8.68,9.88,9.88,0,0,1-4.82,4.82h-7.8a9.88,9.88,0,0,1-4.82-4.82A10.24,10.24,0,0,1,162.09,293.05Z" transform="translate(0 -10.26)"/><g class="cls-55"><rect class="cls-31" x="162.75" y="281.07" width="14.85" height="1.43" transform="translate(340.35 553.31) rotate(180)"/><rect class="cls-32" x="162.75" y="285.15" width="14.85" height="1.43" transform="translate(340.35 561.48) rotate(180)"/><rect class="cls-49" x="158.23" y="289.21" width="23.89" height="2.3" transform="translate(340.35 570.45) rotate(180)"/></g><line class="cls-50" x1="176.84" y1="268.4" x2="163.98" y2="268.4"/><path class="cls-51" d="M176.84,278.66c-1.07.12-2.15.17-3.22.22s-2.14.06-3.21.06-2.15,0-3.22-.06-2.14-.1-3.21-.22c1.07-.12,2.14-.17,3.21-.22s2.15-.06,3.22-.06,2.14,0,3.21.06S175.77,278.54,176.84,278.66Z" transform="translate(0 -10.26)"/><rect class="cls-56" x="159.7" y="294.02" width="46.63" height="19.4" transform="translate(366.04 597.17) rotate(180)"/><rect class="cls-57" x="187.57" y="294.02" width="18.76" height="19.4" transform="translate(393.91 597.17) rotate(180)"/><path class="cls-58" d="M142.36,155.67c0,6.16-5.28,24.93-14.06,24.68C118,153.33,130.3,147.07,142.36,155.67Z" transform="translate(0 -10.26)"/><rect class="cls-59" x="123.23" y="259.22" width="4.81" height="42.35" transform="translate(251.26 550.53) rotate(180)"/><path class="cls-60" d="M121.18,298.7h8.91a0,0,0,0,1,0,0v3.73a3.45,3.45,0,0,1-3.45,3.45h-2a3.45,3.45,0,0,1-3.45-3.45V298.7A0,0,0,0,1,121.18,298.7Z" transform="translate(251.26 594.32) rotate(180)"/><path class="cls-60" d="M144.15,314c0-4.1-8.29-7.43-18.52-7.43s-18.52,3.33-18.52,7.43Z" transform="translate(0 -10.26)"/><path class="cls-59" d="M119.06,304.44H132.2a0,0,0,0,1,0,0v0a2.58,2.58,0,0,1-2.58,2.58h-8a2.58,2.58,0,0,1-2.58-2.58v0a0,0,0,0,1,0,0Z" transform="translate(251.26 601.19) rotate(180)"/><path class="cls-14" d="M143.82,312.62c-3,.1-6,.17-9,.21l-9,.07-9-.07c-3,0-6-.11-9-.21q4.48-.17,9-.22l9-.07,9,.07C137.83,312.44,140.82,312.51,143.82,312.62Z" transform="translate(0 -10.26)"/><path class="cls-58" d="M124.93,155.67s13.25,1.92,17.43,0c2.56-11.76-11.58-20.57-23.29-12.29-11-.4-12.44,15-7,35.74,3.4,7.95,9.45.07,11.68-1.88,4.32-3.78-2.09-9.43-.62-15C123.6,160.37,124.21,158.14,124.93,155.67Z" transform="translate(0 -10.26)"/><rect class="cls-13" x="111.18" y="273.49" width="80.9" height="3.82" transform="translate(427.03 113.51) rotate(90)"/><rect class="cls-61" x="112.5" y="273.49" width="80.9" height="3.82" transform="translate(428.35 112.19) rotate(90)"/><path class="cls-62" d="M154,190.37c8.61,7.09,18,15.84,13.25,18.55l-3.85,2.24c-5-1.1-12.13-8.47-15.2-11.17C150.39,195.7,150.34,193.92,154,190.37Z" transform="translate(0 -10.26)"/><path class="cls-63" d="M135.45,182.1c2.46-4.1,11.52,1.28,20,8.27-3.7,3.55-5.68,7.85-7.83,12.14C138.79,194.75,133.59,185.18,135.45,182.1Z" transform="translate(0 -10.26)"/><path class="cls-63" d="M125.43,178.71c-15,0-20.9,2.94-19.21,12.57,4.87,27.63,3.22,36.42,2.83,52,27.27,0,36.35,2.08,36.35,2.08s-7.76-23.48.63-45.36C151.23,186.46,146,177.43,125.43,178.71Z" transform="translate(0 -10.26)"/><path class="cls-35" d="M125.63,201l-5.07.6a33.78,33.78,0,0,0-2.91-22.83q1.21,0,2.28.15a74.14,74.14,0,0,1,3.35,9.51A74.78,74.78,0,0,1,125.63,201Z" transform="translate(0 -10.26)"/><polygon class="cls-35" points="116.74 190.5 110.58 234.1 142.36 234.1 142.19 190.5 136.96 190.5 116.74 190.5"/><path class="cls-35" d="M135.8,187.09a34.75,34.75,0,0,1-3.07,13.81H138a50.86,50.86,0,0,0,.41-14.46,60.59,60.59,0,0,0-1.27-7.08,3.8,3.8,0,0,0-2.18-.58A34.48,34.48,0,0,1,135.8,187.09Z" transform="translate(0 -10.26)"/><path class="cls-51" d="M145.82,201.43a27.68,27.68,0,0,1-1.92-4.56A25.43,25.43,0,0,1,143,192a50.07,50.07,0,0,1,.28-9.87l.05,4.93c0,1.63.07,3.27.23,4.89a29,29,0,0,0,.79,4.82C144.71,198.33,145.27,199.87,145.82,201.43Z" transform="translate(0 -10.26)"/><polygon class="cls-64" points="141.13 284.36 140.33 290.74 147.41 292.78 146.78 283.25 141.13 284.36"/><path class="cls-65" d="M140.65,299.75s-4,3.72-3.15,6.67c2.83,1.48,6.61,3.31,8.62,5.08a15.21,15.21,0,0,0,11.72,3.18c1.62-4.56-2.71-8-6.51-9.77s-3.63-4.57-3.63-4.57S143.58,301.61,140.65,299.75Z" transform="translate(0 -10.26)"/><path class="cls-66" d="M152.63,309s-8.41-3.63-8.37-8c0-.94,0-2.52,2.09-2.32,1.64.15,1,.31,1.43,2.12s1.48,2.64,3,3.59c1.31.85,4.16,2.05,4.95,3.61-.88,2.2-3.06,1-3.06,1" transform="translate(0 -10.26)"/><path class="cls-14" d="M148.21,302.19c-.28.12-.55.2-.81.3l-.76.28c-.26.09-.5.2-.75.31s-.5.24-.79.35a2.38,2.38,0,0,1,1.34-1.19,2.93,2.93,0,0,1,.88-.18A2.07,2.07,0,0,1,148.21,302.19Z" transform="translate(0 -10.26)"/><path class="cls-14" d="M149.46,303.72c-.52.23-1,.36-1.47.54a2.42,2.42,0,0,0-1.21.79,1,1,0,0,1,.27-.83,1.72,1.72,0,0,1,.74-.49,2.19,2.19,0,0,1,.84-.15A2,2,0,0,1,149.46,303.72Z" transform="translate(0 -10.26)"/><path class="cls-14" d="M151.33,304.91c-.51.31-1,.51-1.48.75a4.87,4.87,0,0,0-.68.36,1.59,1.59,0,0,0-.55.57,1,1,0,0,1,.25-.88,2,2,0,0,1,.73-.56,3.33,3.33,0,0,1,.85-.26A2.6,2.6,0,0,1,151.33,304.91Z" transform="translate(0 -10.26)"/><path class="cls-14" d="M153.71,306.22a6.58,6.58,0,0,1-.73.52c-.25.16-.5.29-.75.43l-.73.39a2.53,2.53,0,0,0-.68.51,1.22,1.22,0,0,1,.4-.85,3.23,3.23,0,0,1,.74-.55,3.66,3.66,0,0,1,.85-.33A3,3,0,0,1,153.71,306.22Z" transform="translate(0 -10.26)"/><path class="cls-67" d="M157.84,314.68c1-2.89-.34-5.34-2.45-7.19a10,10,0,0,0-5.34,4.42c-5.5-2.35-10-6-12.43-7.74a3.78,3.78,0,0,0-.12,2.25c2.83,1.48,6.61,3.31,8.62,5.08A15.21,15.21,0,0,0,157.84,314.68Z" transform="translate(0 -10.26)"/><path class="cls-65" d="M111.86,304.84l0-.35a9.53,9.53,0,0,0,7.14-.83,26.25,26.25,0,0,1,3.41,7.22c-.21.58-.45,1.14-.59,1.67-3.19-3.16-7-3-8.55,1.76a8.37,8.37,0,0,1-1.1-.61C111.48,312.06,111.54,309.31,111.86,304.84Z" transform="translate(0 -10.26)"/><path class="cls-52" d="M118,294.05l.81,9.22.26.39a9.53,9.53,0,0,1-7.14.83c.68-9.66.51-10.53.51-10.53Z" transform="translate(0 -10.26)"/><path class="cls-66" d="M120.29,311.92c-.31-.21-2-4.11-2.57-8.12s-4.38-3.26-4.52.94a39.86,39.86,0,0,0,1,9.06Z" transform="translate(0 -10.26)"/><path class="cls-67" d="M121.85,312.55c.14-.53.38-1.09.59-1.67.59,2.49.3,5.23-2.82,5.87-4.13.85-6.72.9-7.42-3.05a8.37,8.37,0,0,0,1.1.61C114.87,309.53,118.66,309.39,121.85,312.55Z" transform="translate(0 -10.26)"/><path class="cls-14" d="M119.16,309.4a12.88,12.88,0,0,0-2.93.13,6.88,6.88,0,0,0-1.38.37,8.13,8.13,0,0,0-1.32.66,3.35,3.35,0,0,1,1.13-1.05,4.14,4.14,0,0,1,1.47-.54,5.11,5.11,0,0,1,1.56,0A4.19,4.19,0,0,1,119.16,309.4Z" transform="translate(0 -10.26)"/><path class="cls-14" d="M118.59,307.64c-1,.09-1.86.1-2.75.21a7.25,7.25,0,0,0-1.3.24,3,3,0,0,0-1.17.62,1.94,1.94,0,0,1,1-1,3.68,3.68,0,0,1,1.4-.4,5.7,5.7,0,0,1,1.43,0A5.07,5.07,0,0,1,118.59,307.64Z" transform="translate(0 -10.26)"/><path class="cls-14" d="M118.14,305.94a23.82,23.82,0,0,0-2.58.13,8,8,0,0,0-1.2.28,5.7,5.7,0,0,0-1.14.6,2.58,2.58,0,0,1,1-1,3.85,3.85,0,0,1,1.31-.45,4.83,4.83,0,0,1,1.37,0A4.14,4.14,0,0,1,118.14,305.94Z" transform="translate(0 -10.26)"/><path class="cls-14" d="M117.9,304.77a11.63,11.63,0,0,0-2.59-.22,4.45,4.45,0,0,0-1.19.26,4.15,4.15,0,0,0-1.08.7,2.36,2.36,0,0,1,.87-1.09,3,3,0,0,1,1.37-.44,4.06,4.06,0,0,1,1.39.18A3.83,3.83,0,0,1,117.9,304.77Z" transform="translate(0 -10.26)"/><path class="cls-68" d="M148.54,293.26c-.07,2.58-.11,4.22-.11,4.22h-8.69s-.21-1.53-.53-4C142.31,293.34,145.41,293.23,148.54,293.26Z" transform="translate(0 -10.26)"/><path class="cls-69" d="M144,238.81c6,.82,6,13.4,5.57,23.46-.34,7.5-.8,23.82-1,31-3.13,0-6.23.08-9.33.24-.7-5.48-1.86-16.45-2.51-25.6C134.88,242.56,137.63,237.94,144,238.81Z" transform="translate(0 -10.26)"/><path class="cls-68" d="M119.22,298.36l-8.85,1s-.21-1.33-.5-3.83c3.13-.07,6.27-.25,9.41-.45C119.24,297.13,119.22,298.36,119.22,298.36Z" transform="translate(0 -10.26)"/><path class="cls-69" d="M113.6,238.72c8.75,0,7.09,11.66,6.56,24.82-.39,9.45-.74,25.31-.88,31.57-3.14.2-6.28.38-9.41.45-.32-2.78-.76-7.16-1.17-13.18C107.76,268.25,101.24,238.72,113.6,238.72Z" transform="translate(0 -10.26)"/><path class="cls-35" d="M142.94,237.45c6,1.86,10.34,5.11,9.42,26.06-2.11-2.11-15-5.12-20.28-1.39s-17.81-1.86-22,.69a19.82,19.82,0,0,1-8.76,2.68s-1.15-24.78,6-28S142.94,237.45,142.94,237.45Z" transform="translate(0 -10.26)"/><path class="cls-51" d="M131.15,261.65c-.11-1.76-.25-3.52-.41-5.27s-.3-3.51-.49-5.26-.39-3.5-.68-5.23c-.15-.86-.32-1.73-.55-2.56a7.38,7.38,0,0,0-.42-1.2c-.18-.37-.45-.69-.56-.54a2.74,2.74,0,0,0-.67.94c-.19.38-.35.78-.51,1.19-.3.81-.56,1.65-.81,2.49-.49,1.68-.89,3.4-1.31,5.11s-.79,3.43-1.16,5.16-.75,3.44-1.09,5.17c.5-3.49,1.09-7,1.82-10.43.36-1.73.77-3.44,1.25-5.15.24-.85.49-1.7.8-2.54a12.23,12.23,0,0,1,.52-1.25,2.94,2.94,0,0,1,.87-1.17.72.72,0,0,1,.53-.1,1,1,0,0,1,.4.25,2.39,2.39,0,0,1,.42.63,8,8,0,0,1,.44,1.3,26.42,26.42,0,0,1,.53,2.62c.28,1.75.48,3.5.61,5.27C131,254.6,131.11,258.12,131.15,261.65Z" transform="translate(0 -10.26)"/><path class="cls-51" d="M110,261.65c.37-1.82.7-3.64,1-5.46s.64-3.65.9-5.48.5-3.67.6-5.5a12.8,12.8,0,0,0-.09-2.71c-.06-.42-.24-.91-.46-.93s-.6.25-.86.57a22.19,22.19,0,0,0-2.61,4.8c-.73,1.69-1.38,3.42-2,5.15s-1.28,3.48-1.88,5.23-1.22,3.5-1.79,5.26q1.44-5.37,3.25-10.64.92-2.62,2-5.21a22.19,22.19,0,0,1,2.65-5,2.81,2.81,0,0,1,.56-.52,1,1,0,0,1,.87-.21.86.86,0,0,1,.42.26,2.06,2.06,0,0,1,.23.37,3.31,3.31,0,0,1,.2.73,12.81,12.81,0,0,1,.07,2.83,53.72,53.72,0,0,1-.68,5.54C111.71,254.44,110.9,258.06,110,261.65Z" transform="translate(0 -10.26)"/><rect class="cls-13" x="131.22" y="273.49" width="80.9" height="3.82" transform="translate(447.07 93.46) rotate(90)"/><rect class="cls-61" x="132.55" y="273.49" width="80.9" height="3.82" transform="translate(448.4 92.14) rotate(90)"/><rect class="cls-13" x="38.92" y="273.49" width="80.9" height="3.82" transform="translate(354.77 185.77) rotate(90)"/><rect class="cls-61" x="40.24" y="273.49" width="80.9" height="3.82" transform="translate(356.09 184.44) rotate(90)"/><path class="cls-51" d="M154,189.17c-1.5,1.91-3,3.82-4.29,5.84a24.68,24.68,0,0,0-3.24,6.42,12,12,0,0,1,1-3.52,21.4,21.4,0,0,1,1.77-3.22,28.64,28.64,0,0,1,2.22-2.91A26.19,26.19,0,0,1,154,189.17Z" transform="translate(0 -10.26)"/><path class="cls-40" d="M154.51,164.87A4.11,4.11,0,0,0,157,161.4c-.1-1,2.43-2.07,2.43-2.07-4.26-.89-6,4.19-5.31,5.2S154.51,164.87,154.51,164.87Z" transform="translate(0 -10.26)"/><path class="cls-49" d="M155.06,161a4.16,4.16,0,0,1,4.35-1.68s-2.53,1.08-2.43,2.07a1.22,1.22,0,0,1,0,.27A2.15,2.15,0,0,1,155.06,161Z" transform="translate(0 -10.26)"/><path class="cls-40" d="M155.06,161a2.15,2.15,0,0,0,1.91.66,4.17,4.17,0,0,1-2.46,3.2s.27.67-.41-.34C153.74,164,154.06,162.34,155.06,161Z" transform="translate(0 -10.26)"/><path class="cls-41" d="M146.33,172.83c-6.35,7.75-11.23,14.26-10.9,14.53s5.75-5.79,12.11-13.54,6.14-8,5.81-8.32S152.68,165.08,146.33,172.83Z" transform="translate(0 -10.26)"/><rect class="cls-42" x="152.35" y="163.67" width="1.56" height="4.2" transform="translate(166.5 380.78) rotate(-140.67)"/><rect class="cls-43" x="152.35" y="164.2" width="1.56" height="3.14" transform="translate(166.5 380.78) rotate(-140.67)"/><rect class="cls-42" x="152.35" y="165.01" width="1.56" height="1.51" transform="translate(166.5 380.78) rotate(-140.67)"/><path class="cls-62" d="M121,167.43v13.16a11.27,11.27,0,0,0,10.59.47V171Z" transform="translate(0 -10.26)"/><path class="cls-62" d="M113.91,157.79c0,7.49,5.26,20.35,18.81,18.38,8.77-1.28,8.57-7.71,7.91-22.35a11.54,11.54,0,0,0-9.59-11C122.29,141.47,111.71,144.72,113.91,157.79Z" transform="translate(0 -10.26)"/><path class="cls-62" d="M116.73,159.22c-7.54-4.77-3.58,12.54,2.87,8" transform="translate(0 -10.26)"/><circle class="cls-36" cx="129.74" cy="152.1" r="3.98"/><path class="cls-36" d="M141.16,162.36c0,2.2-.83,4-1.86,4s-1.85-1.78-1.85-4,.83-4,1.85-4S141.16,160.16,141.16,162.36Z" transform="translate(0 -10.26)"/><g class="cls-70"><path class="cls-14" d="M135.14,162.36a3.59,3.59,0,1,1-3.59-3.58A3.58,3.58,0,0,1,135.14,162.36Z" transform="translate(0 -10.26)"/></g><g class="cls-71"><path class="cls-14" d="M141.77,162.36c0,2-.75,3.58-1.67,3.58s-1.67-1.6-1.67-3.58.75-3.58,1.67-3.58S141.77,160.38,141.77,162.36Z" transform="translate(0 -10.26)"/></g><path class="cls-51" d="M137.05,165.94a1.33,1.33,0,0,1,.64-.23.87.87,0,0,1,.65.39,1.47,1.47,0,0,1,0,1.44,1.84,1.84,0,0,1-1.07.89,2,2,0,0,1-1.31-.05,3.54,3.54,0,0,0,1.14-.35,1.86,1.86,0,0,0,.74-.76,1.27,1.27,0,0,0,.14-1C137.88,166,137.49,165.88,137.05,165.94Z" transform="translate(0 -10.26)"/><path class="cls-51" d="M132.73,170.32a2.84,2.84,0,0,0,1,1,3.28,3.28,0,0,0,1.27.45,2.49,2.49,0,0,0,1.29-.2,3.81,3.81,0,0,0,1.14-.86,2.37,2.37,0,0,1-.93,1.24,2.29,2.29,0,0,1-1.57.38,2.72,2.72,0,0,1-1.46-.66A2.09,2.09,0,0,1,132.73,170.32Z" transform="translate(0 -10.26)"/><path class="cls-51" d="M121.56,173.09a13.13,13.13,0,0,0,2.61,1.67,14.16,14.16,0,0,0,2.88,1,15.47,15.47,0,0,0,3,.43,27,27,0,0,0,3.11-.06c-.5.13-1,.26-1.54.36a13.84,13.84,0,0,1-1.58.14,11.32,11.32,0,0,1-3.17-.32,11,11,0,0,1-3-1.21A8.31,8.31,0,0,1,121.56,173.09Z" transform="translate(0 -10.26)"/><path class="cls-72" d="M124.93,155.67s13.25,1.92,17.43,0c2.56-11.76-11.58-20.57-23.29-12.29-11-.4-12.44,15-7,35.74,1.59.78,4.8.07,7-1.88,4.32-3.78,2.56-9.43,4-15C123.6,160.37,124.21,158.14,124.93,155.67Z" transform="translate(0 -10.26)"/><path class="cls-14" d="M119.6,168a15.15,15.15,0,0,1-.38-3.62,17.82,17.82,0,0,1,.37-3.63,17.13,17.13,0,0,1,1.06-3.49,15.6,15.6,0,0,1,1.77-3.17,31.86,31.86,0,0,0-1.36,3.33,27.26,27.26,0,0,0-.92,3.44,30.13,30.13,0,0,0-.49,3.54A28.78,28.78,0,0,0,119.6,168Z" transform="translate(0 -10.26)"/><path class="cls-14" d="M116.6,170.32a33.37,33.37,0,0,1-.09-5,34.75,34.75,0,0,1,.62-5,22,22,0,0,1,1.5-4.81,11.25,11.25,0,0,1,2.93-4.05A13.79,13.79,0,0,0,119,155.7a25.24,25.24,0,0,0-1.35,4.75,44.87,44.87,0,0,0-.73,4.9C116.78,167,116.66,168.66,116.6,170.32Z" transform="translate(0 -10.26)"/><path class="cls-14" d="M116.46,147.17a5.13,5.13,0,0,0-2.31,2.27,12.69,12.69,0,0,0-.75,1.47c-.18.52-.38,1-.54,1.56a31.19,31.19,0,0,0-1.1,6.52c-.19,2.2-.23,4.43-.2,6.65s.14,4.44.2,6.67c-.15-1.1-.27-2.21-.4-3.32s-.16-2.23-.24-3.34-.06-2.23-.06-3.35.08-2.24.14-3.36a28.6,28.6,0,0,1,1.25-6.6c.18-.54.42-1.05.63-1.58a11.87,11.87,0,0,1,.84-1.47A5,5,0,0,1,116.46,147.17Z" transform="translate(0 -10.26)"/><path class="cls-14" d="M123.72,148.64c1.25.56,2.51,1.1,3.77,1.6s2.54,1,3.84,1.38,2.61.77,3.93,1.08a32,32,0,0,0,4,.6,18.36,18.36,0,0,1-4.12-.17,32.67,32.67,0,0,1-4-1,40.85,40.85,0,0,1-3.84-1.52A27.49,27.49,0,0,1,123.72,148.64Z" transform="translate(0 -10.26)"/><path class="cls-14" d="M124.45,145.92a29.27,29.27,0,0,1,3.38.49c1.12.22,2.23.51,3.33.83a23,23,0,0,1,3.2,1.23,7.07,7.07,0,0,1,2.74,2.06,8.06,8.06,0,0,0-.66-.53c-.25-.14-.47-.31-.73-.43a16.11,16.11,0,0,0-1.52-.7c-1.06-.4-2.12-.76-3.2-1.09s-2.17-.63-3.26-.94Z" transform="translate(0 -10.26)"/><path class="cls-14" d="M121.27,144.72a11,11,0,0,1,2.47-1.69,11.33,11.33,0,0,1,2.83-1.05,8.62,8.62,0,0,1,3-.1,6.58,6.58,0,0,1,2.75,1.18,9.08,9.08,0,0,0-2.81-.75,11,11,0,0,0-2.86.22,17.18,17.18,0,0,0-2.77.89A24,24,0,0,0,121.27,144.72Z" transform="translate(0 -10.26)"/><path class="cls-14" d="M119.12,149.75a33,33,0,0,0-1.74,3.65,31.46,31.46,0,0,0-1.29,3.8,28.84,28.84,0,0,0-.87,3.92c-.24,1.32-.34,2.66-.47,4a22.25,22.25,0,0,1,0-4.08,23.12,23.12,0,0,1,2.2-7.84A17.1,17.1,0,0,1,119.12,149.75Z" transform="translate(0 -10.26)"/><path class="cls-14" d="M116.2,151.38c-.52,1.42-1,2.86-1.4,4.3a39.22,39.22,0,0,0-1,4.39,28,28,0,0,0-.43,4.47,21.26,21.26,0,0,0,.5,4.47,14.49,14.49,0,0,1-.93-4.46,24.11,24.11,0,0,1,.3-4.57,31.52,31.52,0,0,1,1.15-4.42A26.25,26.25,0,0,1,116.2,151.38Z" transform="translate(0 -10.26)"/><path class="cls-14" d="M121.56,146.4a8.32,8.32,0,0,1,2.81-1.55,10.15,10.15,0,0,1,3.18-.58,10.84,10.84,0,0,1,3.21.4c.53.12,1,.35,1.53.52s1,.47,1.43.73a22.58,22.58,0,0,0-3.05-.82,14.12,14.12,0,0,0-3.1-.26,13.93,13.93,0,0,0-3.08.42A12.62,12.62,0,0,0,121.56,146.4Z" transform="translate(0 -10.26)"/><path class="cls-62" d="M164.18,181.45c.32-.09,5.69-1.31,7.89-1.83a1.71,1.71,0,0,0,1.31-1.89c-.21-1.56-.72-6.36-2-6.1-.85.18-.89,1.28.16,4.53-1.05-5.45-3.68-6.09-2-.24-1-6.55-2.92-3.38-1.69.62-1.36-6.79-3-3-1.57.6-1.49-1-5.18.89-5.4,2.39C160.47,186.2,163.74,181.58,164.18,181.45Z" transform="translate(0 -10.26)"/><path class="cls-62" d="M168.51,210a3,3,0,0,1-1,1,4.8,4.8,0,0,1-4.92-.22,6.62,6.62,0,0,1-2.74-4.71,37.22,37.22,0,0,1-.35-6.84c0-3.25.2-6.5.45-9.74.17-2.24.39-4.47.63-6.71,0-.16.4-2.73.32-2.76l3.66,1.3s-.38,11.33,2.9,19.84c.32,1,.6,2.1.85,3.16C168.7,206.1,169.53,208.41,168.51,210Z" transform="translate(0 -10.26)"/><line class="cls-50" x1="167.85" y1="166.28" x2="167.45" y2="163.86"/><path class="cls-51" d="M167.85,176.54a2.27,2.27,0,0,1-.31-.57,3.06,3.06,0,0,1-.17-.59,3.18,3.18,0,0,1,0-.62,2.1,2.1,0,0,1,.11-.64,2.17,2.17,0,0,1,.32.57,2.94,2.94,0,0,1,.16.6,2.47,2.47,0,0,1,0,.61A1.85,1.85,0,0,1,167.85,176.54Z" transform="translate(0 -10.26)"/><line class="cls-50" x1="169.54" y1="165.66" x2="168.92" y2="163.45"/><path class="cls-51" d="M169.54,175.92a1.63,1.63,0,0,1-.36-.49,2.27,2.27,0,0,1-.22-.54,2.12,2.12,0,0,1-.09-.57,1.86,1.86,0,0,1,0-.61,1.86,1.86,0,0,1,.37.49,2.24,2.24,0,0,1,.21.54,2.19,2.19,0,0,1,.09.57A1.84,1.84,0,0,1,169.54,175.92Z" transform="translate(0 -10.26)"/><line class="cls-50" x1="171.41" y1="165.48" x2="170.93" y2="163.6"/><path class="cls-51" d="M171.41,175.74a1.61,1.61,0,0,1-.33-.42,1.46,1.46,0,0,1-.18-.45,1.51,1.51,0,0,1-.06-.48,1.22,1.22,0,0,1,.09-.52,1.42,1.42,0,0,1,.33.41,1.9,1.9,0,0,1,.24.93A1.29,1.29,0,0,1,171.41,175.74Z" transform="translate(0 -10.26)"/><path class="cls-51" d="M159.56,195.1c.08,1,.11,1.94.14,2.91s0,1.94.05,2.91l0,2.9a19.79,19.79,0,0,0,.17,2.88,9.94,9.94,0,0,1-.61-2.86c-.11-1-.13-2-.15-2.92s0-1.94.09-2.91S159.41,196.07,159.56,195.1Z" transform="translate(0 -10.26)"/><path class="cls-62" d="M119.59,201.72c2.47-3.43,4.25-4,7.69-6.22,2.55,2.55,7.37,6.83,9.5,7.64l.23,9.3C135.06,213,127.15,207.91,119.59,201.72Z" transform="translate(0 -10.26)"/><path class="cls-63" d="M120.72,204.62c-8.85-7.24-16.87-16.45-13.19-21.39,5.29-7.11,14.18,4.9,21.92,12.67A32.91,32.91,0,0,0,120.72,204.62Z" transform="translate(0 -10.26)"/><path class="cls-51" d="M118,184.36a29,29,0,0,1,3.14,2.59c1,.92,1.94,1.9,2.89,2.87s1.84,2,2.73,3,1.79,2,2.66,3.08c-1-.88-2-1.82-3-2.78s-1.89-2-2.83-2.91l-2.78-3C119.94,186.28,119,185.32,118,184.36Z" transform="translate(0 -10.26)"/><path class="cls-51" d="M120.72,204.62a33.36,33.36,0,0,1-2.86-2.15c-.93-.75-1.81-1.55-2.67-2.38s-1.69-1.7-2.46-2.61a26.05,26.05,0,0,1-2.15-2.86c.83.86,1.64,1.72,2.48,2.56s1.67,1.68,2.52,2.5l2.57,2.47C119,203,119.87,203.78,120.72,204.62Z" transform="translate(0 -10.26)"/><path class="cls-62" d="M136.64,203.11c2-3.78,7.84-16.41,7.84-16.41l3.35-.72s-2.09,22.14-6.32,25.06c-2,1.36-3.4,2.64-7.88.42" transform="translate(0 -10.26)"/><path class="cls-62" d="M144.48,186.7c-.18-.29-3.41-5-4.72-6.89a1.76,1.76,0,0,1,.32-2.34c1.25-1,5-4.34,5.76-3.25.52.72-.22,1.59-3.27,3.33,4.59-3.41,7-2.06,1.69,1.21,5.33-4.26,4.56-.53.84,1.65,5.77-4.21,4.36-.2.78,1.55a2.87,2.87,0,0,1,2,4" transform="translate(0 -10.26)"/><line class="cls-50" x1="145.1" y1="170.15" x2="147.1" y2="168.59"/><path class="cls-51" d="M145.1,180.41a2.27,2.27,0,0,1,.37-.56,2.4,2.4,0,0,1,.46-.44,3,3,0,0,1,.53-.34,2.2,2.2,0,0,1,.64-.22,2.47,2.47,0,0,1-.37.56,2.4,2.4,0,0,1-.46.44,3,3,0,0,1-.53.34A2.54,2.54,0,0,1,145.1,180.41Z" transform="translate(0 -10.26)"/><line class="cls-50" x1="144.26" y1="168.5" x2="146.26" y2="167.25"/><path class="cls-51" d="M144.26,178.76a1.72,1.72,0,0,1,.39-.49,2.67,2.67,0,0,1,.46-.37,2.45,2.45,0,0,1,.54-.26,2.27,2.27,0,0,1,.61-.13,1.78,1.78,0,0,1-.38.5,2.4,2.4,0,0,1-.47.37,2.61,2.61,0,0,1-.53.26A2.07,2.07,0,0,1,144.26,178.76Z" transform="translate(0 -10.26)"/><line class="cls-50" x1="142.29" y1="166.96" x2="143.92" y2="165.91"/><path class="cls-51" d="M142.29,177.22a1.4,1.4,0,0,1,.29-.44,1.85,1.85,0,0,1,.37-.32,2.23,2.23,0,0,1,.44-.21,1.48,1.48,0,0,1,.53-.08,1.66,1.66,0,0,1-.29.45,2.24,2.24,0,0,1-.37.32,1.75,1.75,0,0,1-.44.2A1.48,1.48,0,0,1,142.29,177.22Z" transform="translate(0 -10.26)"/><line class="cls-50" x1="137.52" y1="191.14" x2="134.57" y2="196.13"/><path class="cls-51" d="M137.52,201.4a11.7,11.7,0,0,1-.55,1.36c-.21.44-.45.86-.69,1.28s-.5.82-.79,1.21a10,10,0,0,1-.92,1.14,9,9,0,0,1,.55-1.36c.2-.44.44-.86.68-1.28s.5-.82.79-1.21A11,11,0,0,1,137.52,201.4Z" transform="translate(0 -10.26)"/><path class="cls-51" d="M127.48,193.86a44.81,44.81,0,0,0-4.7,4.31,26,26,0,0,0-2,2.46,17,17,0,0,0-1.52,2.79,10,10,0,0,1,1.15-3,15.94,15.94,0,0,1,1.93-2.62,21.56,21.56,0,0,1,2.4-2.18A17.2,17.2,0,0,1,127.48,193.86Z" transform="translate(0 -10.26)"/><path class="cls-72" d="M116.8,174.47s1,4.81-1.36,6.52c0,3.69-3.26,7-4.71,7.25.09,4.38-1.11,7-2.38,7.12,0,4.18,0,5.76-1,6.21,2,5.76.49,9.15-.93,9.72-3.51-4.3-1.46-9.61-.7-9.95-3.8-5.76.64-6.21.64-6.21-1.23-5.42,1.5-7,1.5-7-1-4.63,3.81-8,3.81-8a10.4,10.4,0,0,1,0-6.21" transform="translate(0 -10.26)"/><path class="cls-14" d="M114.08,173.3c-.48.4-1,.69-1.39,1a3.13,3.13,0,0,0-1,1.24,1.24,1.24,0,0,1,.09-.94,2,2,0,0,1,.61-.74,2.87,2.87,0,0,1,.82-.45A2.4,2.4,0,0,1,114.08,173.3Z" transform="translate(0 -10.26)"/><rect class="cls-73" x="82.6" y="226.81" width="32.47" height="1.99" transform="translate(197.66 445.35) rotate(180)"/><rect class="cls-73" x="97.16" y="209.73" width="3.34" height="10.66" transform="translate(197.66 419.87) rotate(180)"/><rect class="cls-74" x="96" y="217.3" width="5.67" height="9.51" transform="translate(197.66 433.84) rotate(180)"/><rect class="cls-74" x="95.65" y="206.92" width="6.36" height="3.58" transform="translate(197.66 407.16) rotate(180)"/><rect class="cls-73" x="81.16" y="205.69" width="35.34" height="2.34" transform="translate(197.66 403.45) rotate(180)"/><rect class="cls-13" x="58.97" y="273.49" width="80.9" height="3.82" transform="translate(374.82 165.72) rotate(90)"/><rect class="cls-61" x="60.29" y="273.49" width="80.9" height="3.82" transform="translate(376.14 164.4) rotate(90)"/><rect class="cls-13" x="76.13" y="232.09" width="80.9" height="5.71" transform="translate(233.17 459.64) rotate(180)"/><rect class="cls-61" x="95.92" y="232.09" width="80.9" height="5.71" transform="translate(272.74 459.64) rotate(180)"/><rect class="cls-75" x="72.29" y="228.8" width="88.58" height="3.29" transform="translate(233.17 450.63) rotate(180)"/><rect class="cls-76" x="92.08" y="228.8" width="88.58" height="3.29" transform="translate(272.74 450.63) rotate(180)"/><path class="cls-51" d="M115.65,175.92a6.24,6.24,0,0,1-.07,1.5,6.72,6.72,0,0,1-.4,1.46,4.44,4.44,0,0,1-.77,1.33,2.49,2.49,0,0,1-1.26.86,4.07,4.07,0,0,0,.9-1.11,8.46,8.46,0,0,0,.61-1.29C115,177.79,115.29,176.86,115.65,175.92Z" transform="translate(0 -10.26)"/><path class="cls-51" d="M111.64,182.15l-1.13,2.24a13.46,13.46,0,0,0-.94,2.31,3,3,0,0,1,0-1.31,5,5,0,0,1,.43-1.25,6,6,0,0,1,.7-1.09A3.66,3.66,0,0,1,111.64,182.15Z" transform="translate(0 -10.26)"/><path class="cls-51" d="M109.57,190.37a3.05,3.05,0,0,1,0,1,3.56,3.56,0,0,1-.24,1,3.8,3.8,0,0,1-.49.88,2.31,2.31,0,0,1-.77.65c.14-.31.27-.59.39-.88l.34-.85.35-.87A8.7,8.7,0,0,1,109.57,190.37Z" transform="translate(0 -10.26)"/><path class="cls-51" d="M106.61,196.84a17.87,17.87,0,0,0-.59,2,5.59,5.59,0,0,0-.13,1,6.35,6.35,0,0,0,0,1.05,2.08,2.08,0,0,1-.49-1,3,3,0,0,1,0-1.15,3.55,3.55,0,0,1,.42-1.05A3.14,3.14,0,0,1,106.61,196.84Z" transform="translate(0 -10.26)"/><polygon class="cls-77" points="107.84 191.11 105.36 190.55 105.02 191.85 107.74 192.25 107.84 191.11"/><polygon class="cls-32" points="125.63 146.33 121.64 142.61 124.45 141.12 127.26 145.7 125.63 146.33"/><rect class="cls-49" x="167.77" y="222.56" width="4.62" height="6.24" transform="translate(340.16 441.1) rotate(180)"/><rect class="cls-52" x="167.45" y="220.92" width="5.26" height="1.63" transform="translate(340.16 433.22) rotate(180)"/><rect class="cls-52" x="167.77" y="223.69" width="3.72" height="3.52" transform="translate(339.26 440.63) rotate(180)"/><path class="cls-51" d="M172.71,221.39a8.74,8.74,0,0,1-1.31.22,14.55,14.55,0,0,1-2.64,0,8.53,8.53,0,0,1-1.31-.22,8.53,8.53,0,0,1,1.31-.22,14.55,14.55,0,0,1,2.64,0A8.74,8.74,0,0,1,172.71,221.39Z" transform="translate(0 -10.26)"/><rect class="cls-78" x="161.19" y="222.56" width="4.62" height="6.24" transform="translate(327.01 441.1) rotate(180)"/><rect class="cls-52" x="160.87" y="220.92" width="5.26" height="1.63" transform="translate(327.01 433.22) rotate(180)"/><rect class="cls-52" x="161.19" y="223.69" width="3.72" height="3.52" transform="translate(326.11 440.63) rotate(180)"/><path class="cls-51" d="M166.14,221.39a8.66,8.66,0,0,1-1.32.22,14.44,14.44,0,0,1-2.63,0,8.66,8.66,0,0,1-1.32-.22,8.66,8.66,0,0,1,1.32-.22,14.44,14.44,0,0,1,2.63,0A8.66,8.66,0,0,1,166.14,221.39Z" transform="translate(0 -10.26)"/><rect class="cls-69" x="153.46" y="222.56" width="4.62" height="6.24" transform="translate(311.55 441.1) rotate(180)"/><rect class="cls-52" x="153.14" y="220.92" width="5.26" height="1.63" transform="translate(311.55 433.22) rotate(180)"/><rect class="cls-52" x="154.06" y="223.69" width="3.72" height="3.52" transform="translate(311.84 440.63) rotate(180)"/><path class="cls-51" d="M158.41,221.39a8.66,8.66,0,0,1-1.32.22,11.49,11.49,0,0,1-1.31.06,11.66,11.66,0,0,1-1.32-.06,8.66,8.66,0,0,1-1.32-.22,8.66,8.66,0,0,1,1.32-.22,11.66,11.66,0,0,1,1.32-.06,11.49,11.49,0,0,1,1.31.06A8.66,8.66,0,0,1,158.41,221.39Z" transform="translate(0 -10.26)"/><rect class="cls-79" x="146.69" y="222.56" width="4.62" height="6.24" transform="translate(298 441.1) rotate(180)"/><rect class="cls-52" x="146.37" y="220.92" width="5.26" height="1.63" transform="translate(298 433.22) rotate(180)"/><rect class="cls-52" x="147.28" y="223.69" width="3.72" height="3.52" transform="translate(298.29 440.63) rotate(180)"/><path class="cls-51" d="M151.63,221.39a8.53,8.53,0,0,1-1.31.22,11.66,11.66,0,0,1-1.32.06,11.38,11.38,0,0,1-1.31-.06,8.66,8.66,0,0,1-1.32-.22,8.66,8.66,0,0,1,1.32-.22,11.38,11.38,0,0,1,1.31-.06,11.66,11.66,0,0,1,1.32.06A8.53,8.53,0,0,1,151.63,221.39Z" transform="translate(0 -10.26)"/><rect class="cls-32" x="171.7" y="222.56" width="4.62" height="6.24" transform="translate(348.02 441.1) rotate(180)"/><rect class="cls-52" x="171.38" y="220.92" width="5.26" height="1.63" transform="translate(348.02 433.22) rotate(180)"/><rect class="cls-52" x="172.29" y="223.69" width="3.72" height="3.52" transform="translate(348.3 440.63) rotate(180)"/><path class="cls-51" d="M176.64,221.39a8.66,8.66,0,0,1-1.32.22,11.38,11.38,0,0,1-1.31.06,11.66,11.66,0,0,1-1.32-.06,8.33,8.33,0,0,1-1.31-.22,8.33,8.33,0,0,1,1.31-.22,11.66,11.66,0,0,1,1.32-.06,11.38,11.38,0,0,1,1.31.06A8.66,8.66,0,0,1,176.64,221.39Z" transform="translate(0 -10.26)"/><path class="cls-47" d="M71.1,301.92l2.55-6.26a12.47,12.47,0,0,0,.71-7h0A1.4,1.4,0,0,0,73,287.53,1.25,1.25,0,0,1,73,285H85.84a1.25,1.25,0,1,1,0,2.49,1.39,1.39,0,0,0-1.37,1.14h0a12.38,12.38,0,0,0,.71,7l2.55,6.26a10.24,10.24,0,0,1,.4,8.68,9.88,9.88,0,0,1-4.82,4.82H75.52a9.92,9.92,0,0,1-4.83-4.82A10.23,10.23,0,0,1,71.1,301.92Z" transform="translate(0 -10.26)"/><path class="cls-52" d="M85.24,301.92l2.56-6.26a12.47,12.47,0,0,0,.71-7h0a1.4,1.4,0,0,0-1.38-1.14,1.25,1.25,0,0,1,0-2.49H100a1.25,1.25,0,1,1,0,2.49,1.41,1.41,0,0,0-1.38,1.14h0a12.38,12.38,0,0,0,.72,7l2.55,6.26a10.24,10.24,0,0,1,.4,8.68,9.88,9.88,0,0,1-4.82,4.82h-7.8a9.88,9.88,0,0,1-4.82-4.82A10.24,10.24,0,0,1,85.24,301.92Z" transform="translate(0 -10.26)"/><g class="cls-80"><rect class="cls-31" x="85.91" y="289.94" width="14.85" height="1.43" transform="translate(186.66 571.04) rotate(180)"/><rect class="cls-32" x="85.91" y="294.02" width="14.85" height="1.43" transform="translate(186.66 579.21) rotate(180)"/><rect class="cls-49" x="81.38" y="298.08" width="23.89" height="2.3" transform="translate(186.66 588.19) rotate(180)"/></g><line class="cls-50" x1="99.99" y1="277.27" x2="87.13" y2="277.27"/><path class="cls-51" d="M100,287.53c-1.07.12-2.14.17-3.21.22s-2.15.05-3.22.06-2.14,0-3.21-.06-2.15-.1-3.22-.22c1.07-.12,2.15-.17,3.22-.22s2.14-.06,3.21-.06,2.15,0,3.22.06S98.92,287.41,100,287.53Z" transform="translate(0 -10.26)"/><g class="cls-81"><rect class="cls-31" x="71.76" y="289.94" width="14.85" height="1.43" transform="translate(158.37 571.04) rotate(180)"/><rect class="cls-32" x="71.76" y="294.02" width="14.85" height="1.43" transform="translate(158.37 579.21) rotate(180)"/><rect class="cls-49" x="67.24" y="298.08" width="23.89" height="2.3" transform="translate(158.37 588.19) rotate(180)"/></g><line class="cls-50" x1="85.84" y1="277.27" x2="72.98" y2="277.27"/><path class="cls-51" d="M85.84,287.53c-1.07.12-2.14.17-3.21.22s-2.14.05-3.22.06-2.14,0-3.21-.06-2.14-.1-3.22-.22c1.08-.12,2.15-.17,3.22-.22s2.14-.06,3.21-.06,2.15,0,3.22.06S84.77,287.41,85.84,287.53Z" transform="translate(0 -10.26)"/><path class="cls-52" d="M60.85,301.92l2.55-6.26a12.47,12.47,0,0,0,.71-7h0a1.4,1.4,0,0,0-1.38-1.14,1.25,1.25,0,0,1,0-2.49H75.59a1.25,1.25,0,1,1,0,2.49,1.41,1.41,0,0,0-1.38,1.14h0a12.47,12.47,0,0,0,.72,7l2.55,6.26a10.24,10.24,0,0,1,.4,8.68,9.88,9.88,0,0,1-4.82,4.82H65.27a9.88,9.88,0,0,1-4.83-4.82A10.19,10.19,0,0,1,60.85,301.92Z" transform="translate(0 -10.26)"/><g class="cls-82"><rect class="cls-31" x="61.51" y="289.94" width="14.85" height="1.43" transform="translate(137.87 571.04) rotate(180)"/><rect class="cls-32" x="61.51" y="294.02" width="14.85" height="1.43" transform="translate(137.87 579.21) rotate(180)"/><rect class="cls-49" x="56.99" y="298.08" width="23.89" height="2.3" transform="translate(137.87 588.19) rotate(180)"/></g><line class="cls-50" x1="75.59" y1="277.27" x2="62.73" y2="277.27"/><path class="cls-51" d="M75.59,287.53c-1.07.12-2.14.17-3.21.22s-2.14.05-3.22.06-2.14,0-3.21-.06-2.14-.1-3.22-.22c1.08-.12,2.15-.17,3.22-.22s2.14-.06,3.21-.06,2.15,0,3.22.06S74.52,287.41,75.59,287.53Z" transform="translate(0 -10.26)"/><rect class="cls-56" x="58.46" y="302.89" width="46.63" height="19.4" transform="translate(163.55 614.91) rotate(180)"/><rect class="cls-57" x="86.33" y="302.89" width="18.76" height="19.4" transform="translate(191.42 614.91) rotate(180)"/></g></g></g></svg>