<svg xmlns="http://www.w3.org/2000/svg" viewBox="0 0 215.16 61.89"><defs><style>.cls-1{fill:#8dcb3c;}.cls-2{fill:#bd3870;stroke:#c36;stroke-miterlimit:10;}</style></defs><title>Recurso 1</title><g id="Capa_2" data-name="Capa 2"><g id="Controles_bootstrap" data-name="Controles bootstrap"><path class="cls-1" d="M3,20.35a1.2,1.2,0,0,1,.42.38l4.74,5.15,2.69,2.91a2.32,2.32,0,0,0,.35.35.91.91,0,0,0,1.33-1.2c-.14-.2-.3-.39-.46-.58L5.39,19.25A2,2,0,0,1,5,18.67a1.31,1.31,0,0,1,.27-.21L6.33,18c1-.41,1.92-.79,2.88-1.21a11.45,11.45,0,0,0,1.81-1,6.28,6.28,0,0,0,2.7-4,.43.43,0,0,1,0,0c.14-.55.14-.56.73-.56H31.27a1.06,1.06,0,0,1,.57.07,4.07,4.07,0,0,1,.13.45,6.63,6.63,0,0,0,3.13,4.44,11.39,11.39,0,0,0,2.15,1c.5.17,1,.37,1.49.55l.31.15a.29.29,0,0,1,.16.33,2.1,2.1,0,0,1-.06.24,5.93,5.93,0,0,1-1.26,2.44A10.82,10.82,0,0,1,35,23.36l-.73.41A3.24,3.24,0,0,0,32.58,26a5.6,5.6,0,0,0-.06,2.12,13.08,13.08,0,0,0,.39,1.73,1.11,1.11,0,0,1-.07.86c-.6,1.25-1.18,2.51-1.81,3.75a63.93,63.93,0,0,1-3.36,5.78c-.12.18-.23.36-.34.55l.28.35c-.08.14-.16.28-.25.42a66.72,66.72,0,0,1-4.28,5.77,66.61,66.61,0,0,1-7.38,7.55,62.75,62.75,0,0,1-5,4,.79.79,0,0,1-.46.24,1.38,1.38,0,0,1-.16-.6c0-.16,0-.33,0-.49a5.34,5.34,0,0,0-1.46-3.84,31.34,31.34,0,0,1-2.19-2.69,33,33,0,0,1-4.59-9.14A41,41,0,0,1,.52,37.18c-.08-.45-.13-.91-.2-1.37a.33.33,0,0,1,0-.12l.52,0L2.65,36l1.72.23,1.81.25,1.72.24.53.08a1,1,0,0,0,.73-.1.9.9,0,0,0-.09-1.62,5.12,5.12,0,0,0-.77-.2L3,33.69.58,33.15.16,33A1.06,1.06,0,0,1,0,32.45a30.54,30.54,0,0,1,.06-3.17c.06-.56.09-1.12.13-1.68a1.26,1.26,0,0,1,.15-.54c.13.07.24.12.35.19l7.48,4.39,1,.57a.88.88,0,0,0,.86,0,.9.9,0,0,0,.26-1.42,2.84,2.84,0,0,0-.47-.37L4.35,26.78l-2.92-2-.33-.22a.37.37,0,0,1-.17-.47,10.82,10.82,0,0,1,1.93-3.66A.61.61,0,0,1,3,20.35ZM24.12,41a1,1,0,0,0-.51.18,10.1,10.1,0,0,1-1.75.69,9.39,9.39,0,0,1-1.89.35A7.2,7.2,0,0,1,17.85,42a7,7,0,0,1-3.52-1.91A5.31,5.31,0,0,1,12.69,36a5.1,5.1,0,0,1,1.72-3.72,3.89,3.89,0,0,1,2.35-1,3.79,3.79,0,0,1,2.69.82,3,3,0,0,1,1.24,2.86,2.76,2.76,0,0,1-.86,1.74,2.23,2.23,0,0,1-2.34.52,1.89,1.89,0,0,1-1.32-2,1.57,1.57,0,0,1,1.52-1.35,1.15,1.15,0,0,1,1.1,1.31,1,1,0,0,1-.94.79.86.86,0,0,1-.78-.87,3.91,3.91,0,0,1,.05-.48c-.05,0-.08,0-.11,0a.38.38,0,0,0-.13.06,1.06,1.06,0,0,0-.36,1,1.44,1.44,0,0,0,1,1.22,1.72,1.72,0,0,0,1.78-.28A2.09,2.09,0,0,0,20,34.25a2.62,2.62,0,0,0-2.86-1.86,3,3,0,0,0-1.35.57,3.3,3.3,0,0,0-.5,4.83,4,4,0,0,0,2.8,1.42,4.15,4.15,0,0,0,2.42-.55,4.87,4.87,0,0,0,1.88-6.24,5.71,5.71,0,0,0-4.89-3.32,5.4,5.4,0,0,0-3.79,1,6.9,6.9,0,0,0-3,6.7,6.81,6.81,0,0,0,1.76,3.92,8.09,8.09,0,0,0,2,1.64,8.27,8.27,0,0,0,4.11,1.13,7.48,7.48,0,0,0,2.15-.29,6.6,6.6,0,0,0,3.08-1.82A.91.91,0,0,0,24.12,41ZM11.4,17.18c.06.22.1.45.18.67l1.06,3q1.11,3.12,2.2,6.26a2.16,2.16,0,0,0,.22.49.89.89,0,0,0,1.12.37.9.9,0,0,0,.55-1,3.76,3.76,0,0,0-.13-.48Q15.3,21.79,14,17.1a2.6,2.6,0,0,0-.16-.47,1.27,1.27,0,0,0-1.39-.71A1.32,1.32,0,0,0,11.4,17.18Zm14.5,5.69A1.21,1.21,0,0,0,25,21.63a1.24,1.24,0,0,0-1.39.5,3,3,0,0,0-.22.44c-.84,1.86-1.69,3.72-2.53,5.59a6,6,0,0,0-.23.59.74.74,0,0,0,0,.39.84.84,0,0,0,.67.71.89.89,0,0,0,1-.39c.09-.13.17-.28.25-.42l2-3.43,1.14-2A1.31,1.31,0,0,0,25.9,22.87Z"/><path class="cls-2" d="M24.27,56.18l.27.25a.85.85,0,0,0,.17-.06c.57-.45,1.15-.9,1.71-1.36a46.45,46.45,0,0,0,4.5-4.26l.25-.27c.1,0,.19.05.29.06a2.6,2.6,0,0,0,1.27-.06,3,3,0,0,0,.42-.15,7.92,7.92,0,0,0,3.43-2.84A6.11,6.11,0,0,0,37.26,42a.55.55,0,0,0-.2-.35l-.11.15a3.8,3.8,0,0,1-1,1.21,7.17,7.17,0,0,1-2.79,1.35c-.33.09-.68.15-1,.21a2.36,2.36,0,0,0-1.71,1.14,4.27,4.27,0,0,0-.49,1.19,7.23,7.23,0,0,0-.2,1.47v.39c-1,1.1-2,2.12-3.09,3.1s-2.2,1.91-3.37,2.81l.11.34-.24.22a49.51,49.51,0,0,1-8.38,5.18.9.9,0,0,1-.62.12l-2.48-.5a1,1,0,0,1-.2-.12c1.78-1.22,3.47-2.48,5.1-3.83s3.2-2.78,4.7-4.27,2.9-3,4.25-4.65,2.62-3.31,3.83-5.07l.56.31c.77-1.13,1.5-2.28,2.17-3.45s1.32-2.37,1.94-3.57S35.2,33,35.79,31.75l.2,0a2.79,2.79,0,0,0,1.44-.46,5.24,5.24,0,0,0,.87-.66,10.84,10.84,0,0,0,3-4.69,8.34,8.34,0,0,0-1-7.13c-.08-.12-.17-.24-.25-.37a.43.43,0,0,1,0-.05c.08-.08.15,0,.21,0A9.84,9.84,0,0,1,42.91,21a12.56,12.56,0,0,1,1.89,4,21.33,21.33,0,0,1,.72,3.89,28.79,28.79,0,0,1,.16,3.47,33.23,33.23,0,0,1-7.19,20.33c-.4.5-.83,1-1.26,1.47A5.34,5.34,0,0,0,35.83,57c0,.34,0,.69-.06,1s0,.56-.08.83a1,1,0,0,1-.6.8,5.36,5.36,0,0,1-.79.3,19.24,19.24,0,0,1-2.91.59c-1.26.17-2.52.33-3.79.47-.93.1-1.87.16-2.81.24l-1.29.09a13.15,13.15,0,0,1-2.08-.06c-1-.08-1.91-.15-2.86-.24l-1.91-.2c.07-.18.23-.2.35-.26a51.76,51.76,0,0,0,6.24-3.74l.94-.66Z"/><path class="cls-1" d="M31.76,8.9c-.12,0-.18,0-.24,0H14.11A.54.54,0,0,1,14,8.88a3,3,0,0,1-.06-.32,14.44,14.44,0,0,0-.4-2.44,5.88,5.88,0,0,0-2.12-3.26A7.13,7.13,0,0,0,8.81,1.71C8.19,1.55,7.58,1.36,7,1.17A.87.87,0,0,1,6.66,1,.33.33,0,0,1,6.7.5.51.51,0,0,1,6.88.41c.31,0,.62-.1.93-.11,1.57,0,3.15,0,4.71-.13C14.26.07,16,.11,17.73.08S21.43,0,23.28,0s3.57.06,5.35.08c.7,0,1.39,0,2.09,0L32.8.16H33L37.71.3c.34,0,.68.06,1,.1A.77.77,0,0,1,39,.52.33.33,0,0,1,39,1a1.26,1.26,0,0,1-.26.13c-.62.19-1.22.41-1.85.55a6.16,6.16,0,0,0-3.15,1.67A6.21,6.21,0,0,0,32.2,6.18a11.68,11.68,0,0,0-.33,2C31.85,8.38,31.8,8.62,31.76,8.9Z"/><path class="cls-1" d="M61.75,25.37a6.88,6.88,0,0,0-3.08.67A6.17,6.17,0,0,0,56.42,28a9.25,9.25,0,0,0-1.37,3.06,15.75,15.75,0,0,0-.47,4.05,15.62,15.62,0,0,0,.75,5.16,6.52,6.52,0,0,0,2.33,3.27,7,7,0,0,0,4.09,1.12,15.94,15.94,0,0,0,3.48-.39A31.84,31.84,0,0,0,69,43.14v5.08a19.08,19.08,0,0,1-3.73,1.13,23.34,23.34,0,0,1-4.12.34,13.21,13.21,0,0,1-7.26-1.83,10.93,10.93,0,0,1-4.21-5.12,19.91,19.91,0,0,1-1.36-7.68,19,19,0,0,1,.88-5.94,13.41,13.41,0,0,1,2.57-4.67,11.48,11.48,0,0,1,4.2-3,14.38,14.38,0,0,1,5.75-1.08,17.34,17.34,0,0,1,4.26.54,21.87,21.87,0,0,1,4.09,1.47l-1.95,4.93a32.66,32.66,0,0,0-3.22-1.33A9.54,9.54,0,0,0,61.75,25.37Z"/><path class="cls-1" d="M94.48,38.34a14.66,14.66,0,0,1-.73,4.84,9.65,9.65,0,0,1-2.13,3.57A9.05,9.05,0,0,1,88.26,49a12.53,12.53,0,0,1-4.42.74A11.74,11.74,0,0,1,79.61,49a9.22,9.22,0,0,1-3.34-2.2,9.77,9.77,0,0,1-2.19-3.57,13.89,13.89,0,0,1-.77-4.84,13.38,13.38,0,0,1,1.29-6.15,8.83,8.83,0,0,1,3.67-3.83A11.66,11.66,0,0,1,84,27.05a11.09,11.09,0,0,1,5.44,1.31,9.25,9.25,0,0,1,3.73,3.83A12.76,12.76,0,0,1,94.48,38.34Zm-15.1,0A12,12,0,0,0,79.85,42a3.87,3.87,0,0,0,4.06,2.95,4.13,4.13,0,0,0,2.57-.74A4.24,4.24,0,0,0,87.93,42a12.39,12.39,0,0,0,.46-3.61,12.12,12.12,0,0,0-.46-3.6,4.09,4.09,0,0,0-1.46-2.16,4.33,4.33,0,0,0-2.6-.72,3.79,3.79,0,0,0-3.42,1.62A8.93,8.93,0,0,0,79.38,38.34Z"/><path class="cls-1" d="M108.27,49.69a12,12,0,0,1-5.53-1.18,7.75,7.75,0,0,1-3.47-3.67,14.57,14.57,0,0,1-1.2-6.34A13.86,13.86,0,0,1,99.43,32a8.57,8.57,0,0,1,3.77-3.72,12.54,12.54,0,0,1,5.6-1.19,15.43,15.43,0,0,1,3.91.44,15,15,0,0,1,2.88,1.05l-1.75,4.6c-.94-.37-1.81-.68-2.62-.92a8.5,8.5,0,0,0-2.42-.36,4.36,4.36,0,0,0-2.6.73,4.27,4.27,0,0,0-1.54,2.2,11.27,11.27,0,0,0-.51,3.67,10.24,10.24,0,0,0,.54,3.59,4.35,4.35,0,0,0,1.59,2.12,4.44,4.44,0,0,0,2.52.69,10.22,10.22,0,0,0,3.3-.49,12.93,12.93,0,0,0,2.81-1.4v5.1a10.3,10.3,0,0,1-2.86,1.24A15.9,15.9,0,0,1,108.27,49.69Z"/><path class="cls-1" d="M139.81,38.34a14.66,14.66,0,0,1-.73,4.84A9.65,9.65,0,0,1,137,46.75a9.05,9.05,0,0,1-3.36,2.2,12.53,12.53,0,0,1-4.42.74,11.74,11.74,0,0,1-4.23-.74,9.31,9.31,0,0,1-3.34-2.2,9.91,9.91,0,0,1-2.19-3.57,14.12,14.12,0,0,1-.77-4.84,13.38,13.38,0,0,1,1.29-6.15,8.83,8.83,0,0,1,3.67-3.83,11.66,11.66,0,0,1,5.68-1.31,11.09,11.09,0,0,1,5.44,1.31,9.19,9.19,0,0,1,3.73,3.83A12.76,12.76,0,0,1,139.81,38.34Zm-15.1,0a12,12,0,0,0,.47,3.61,4.26,4.26,0,0,0,1.47,2.21,4.2,4.2,0,0,0,2.6.74,4.1,4.1,0,0,0,2.56-.74A4.24,4.24,0,0,0,133.26,42a12.39,12.39,0,0,0,.46-3.61,12.12,12.12,0,0,0-.46-3.6,4.09,4.09,0,0,0-1.46-2.16,4.32,4.32,0,0,0-2.59-.72,3.8,3.8,0,0,0-3.43,1.62A8.93,8.93,0,0,0,124.71,38.34Z"/><path class="cls-2" d="M145.2,49.3V20.74h6.06V44.3h11.58v5Z"/><path class="cls-2" d="M170.32,18.91a4.09,4.09,0,0,1,2.28.61,2.53,2.53,0,0,1,1,2.3,2.54,2.54,0,0,1-1,2.29,4,4,0,0,1-2.28.64,4.09,4.09,0,0,1-2.3-.64,2.56,2.56,0,0,1-.94-2.29,2.54,2.54,0,0,1,.94-2.3A4.16,4.16,0,0,1,170.32,18.91Zm3,8.55V49.3h-6V27.46Z"/><path class="cls-2" d="M194.77,42.81a6.55,6.55,0,0,1-1,3.76,6.46,6.46,0,0,1-3.12,2.33,14.71,14.71,0,0,1-5.15.79,22,22,0,0,1-3.92-.3,16.13,16.13,0,0,1-3.29-1V43.5a22.87,22.87,0,0,0,3.82,1.31,14.56,14.56,0,0,0,3.58.52,4.48,4.48,0,0,0,2.49-.52,1.56,1.56,0,0,0,.75-1.35,1.7,1.7,0,0,0-.3-1,4.05,4.05,0,0,0-1.3-1A34.3,34.3,0,0,0,184.17,40a19.67,19.67,0,0,1-3.37-1.74,5.66,5.66,0,0,1-2-2.08,6.43,6.43,0,0,1-.64-3.06,5.1,5.1,0,0,1,2.35-4.56,11.43,11.43,0,0,1,6.3-1.53,18,18,0,0,1,3.88.41,18.66,18.66,0,0,1,3.8,1.31l-1.8,4.3a30.64,30.64,0,0,0-3.06-1.16,9.66,9.66,0,0,0-2.91-.45,4.26,4.26,0,0,0-2,.36,1.14,1.14,0,0,0-.66,1.07,1.43,1.43,0,0,0,.34.94,4.56,4.56,0,0,0,1.33.91c.66.33,1.62.76,2.9,1.28a21.47,21.47,0,0,1,3.22,1.59,6,6,0,0,1,2.11,2A5.92,5.92,0,0,1,194.77,42.81Z"/><path class="cls-2" d="M214.66,42.81a6,6,0,0,1-4.16,6.09,14.73,14.73,0,0,1-5.16.79,22.09,22.09,0,0,1-3.92-.3,16.32,16.32,0,0,1-3.29-1V43.5A23.18,23.18,0,0,0,202,44.81a14.63,14.63,0,0,0,3.58.52,4.48,4.48,0,0,0,2.49-.52,1.55,1.55,0,0,0,.76-1.35,1.64,1.64,0,0,0-.31-1,4.1,4.1,0,0,0-1.29-1c-.67-.37-1.71-.85-3.13-1.45a19.67,19.67,0,0,1-3.37-1.74,5.66,5.66,0,0,1-2-2.08,6.55,6.55,0,0,1-.64-3.06,5.11,5.11,0,0,1,2.36-4.56,11.43,11.43,0,0,1,6.3-1.53,18,18,0,0,1,3.87.41,18.66,18.66,0,0,1,3.8,1.31l-1.8,4.3a31.46,31.46,0,0,0-3.05-1.16,9.72,9.72,0,0,0-2.92-.45,4.24,4.24,0,0,0-2,.36,1.13,1.13,0,0,0-.67,1.07,1.49,1.49,0,0,0,.34.94,4.56,4.56,0,0,0,1.33.91c.66.33,1.63.76,2.9,1.28a21.47,21.47,0,0,1,3.22,1.59,5.53,5.53,0,0,1,2.86,5.2Z"/></g></g></svg>