<svg xmlns="http://www.w3.org/2000/svg" viewBox="0 0 236.97 200"><defs><style>.cls-1{fill:#8dcb3c;}</style></defs><title>servicio-2</title><g id="Capa_2" data-name="Capa 2"><g id="Controles_bootstrap" data-name="Controles bootstrap"><path class="cls-1" d="M13.21,49c8,4.65,19.51,7.12,33.38,7.12,19.6,0,41.31,6.12,42.66,19.57.94,9.37-9.66,17.94-26.36,21.32a3,3,0,0,0,.58,5.86,3,3,0,0,0,.59-.06c10-2,18.17-5.73,23.66-10.74s8-10.94,7.42-17c-.7-7-5.57-13.26-13.73-17.71-8.64-4.71-20.68-7.19-34.82-7.19C33.77,50.22,23.26,48,16.2,43.9c-5.68-3.32-8.81-7.77-8.81-12.55C7.39,17.22,29.51,8.78,50.9,8.78a3,3,0,1,0,0-5.92c-14.48,0-26.94,2.95-36,8.54-8.51,5.23-13.39,12.5-13.39,20C1.47,38.32,5.64,44.59,13.21,49Z"/><path class="cls-1" d="M34.33,106.12c1.47-.27,3-.52,4.56-.73a3,3,0,1,0-.79-5.86c-1.65.22-3.29.48-4.87.78a3,3,0,0,0,.54,5.87A2.67,2.67,0,0,0,34.33,106.12Z"/><path class="cls-1" d="M39.71,156.2a123.56,123.56,0,0,0,17.48,1.31c14.24,0,26.76-2.86,37.37-8.57a3,3,0,0,0-2.81-5.22c-13.61,7.33-30.84,9.56-51.19,6.62C25.69,148.19,7.73,141.28,6,128.87c-1-7.19,4.57-14.19,14.87-18.73a3,3,0,1,0-2.39-5.42c-12.85,5.66-19.71,15-18.35,25C2,142.77,17.11,152.94,39.71,156.2Z"/><path class="cls-1" d="M37.24,135.55a22,22,0,0,0,9.18,1.78c10.36,0,23.6-5.34,30.22-17.64a3,3,0,1,0-5.21-2.8c-7.38,13.71-25,16.44-31.68,13.3-2.36-1.1-2-2.12-1.71-2.73.56-1.39,2.27-2.68,5-3.71a3,3,0,0,0-2.12-5.53c-4.34,1.67-7.14,4-8.35,7C30.86,129.47,32.66,133.41,37.24,135.55Z"/><path class="cls-1" d="M49.92,122a2.32,2.32,0,0,0,.46,0c2-.31,4.18-.55,6.53-.71a3,3,0,1,0-.41-5.9c-2.52.17-4.89.43-7,.76a3,3,0,0,0,.45,5.89Z"/><path class="cls-1" d="M234,144.48a3,3,0,0,0-3.59,2.15,42.87,42.87,0,0,1-5.22,12.16,3,3,0,0,0,5,3.11,48.84,48.84,0,0,0,5.92-13.83A3,3,0,0,0,234,144.48Z"/><path class="cls-1" d="M220.13,165.7c-9.34,10.81-24,19.81-40.21,24.68-15.87,4.76-30.9,5-41.22.53-8.26-3.55-9.32-6.29-9.39-7.3-.12-1.73,2-4,5.76-6.33a3,3,0,0,0-3.08-5.06c-6,3.65-8.88,7.62-8.59,11.8.34,4.7,4.58,8.73,13,12.33a51,51,0,0,0,20,3.65c23.57,0,52.28-12,68.24-30.43a3,3,0,0,0-4.48-3.87Z"/><path class="cls-1" d="M154.16,162.59c-1.46.66-2.92,1.3-4.34,1.9a3,3,0,0,0,1.15,5.69,2.89,2.89,0,0,0,1.15-.24c1.47-.62,3-1.28,4.48-2a3,3,0,0,0-2.44-5.39Z"/><path class="cls-1" d="M205.5,35.85l7.12-7.55a94,94,0,0,1,13.61,7.92,3,3,0,1,0,3.42-4.83,96.88,96.88,0,0,0-12.78-7.59L229.6,10.31A6.11,6.11,0,0,0,221,1.68L203.57,18.09C169.4,5.46,126.39,3.52,103.37,3.52h-.28a3,3,0,0,0,0,5.92h0c21.91,0,62.67,1.73,95.65,13.2l-7.85,7.41c-14.07-4.69-43.15-12.18-89.31-14a3,3,0,0,0-.24,5.92c42.34,1.67,70,8.14,84.63,12.73L164.35,55.1c-21.8-9.74-53.6-12.82-79.29-15.31C66.13,38,46.56,36.07,43.28,32c-.24-.29-.22-.43-.2-.56.78-6.74,14.35-10.59,36.29-10.28a3,3,0,1,0,.08-5.92C61,15,38.74,17.48,37.2,30.77a6.56,6.56,0,0,0,1.47,5c4.62,5.71,19.65,7.42,45.82,10,24.36,2.35,54.31,5.25,75.17,13.83L145.71,72.69a88.81,88.81,0,0,0-21.3-9.8,3,3,0,0,0-1.84,5.63,86,86,0,0,1,18.71,8.35L126.28,91l-3.17.72a19.29,19.29,0,0,0-14.9,21.49,13.5,13.5,0,0,1-8.9,14.52l-3.7,1.29a3,3,0,0,0,.23,5.66,37.44,37.44,0,0,0,8.76.95,36.14,36.14,0,0,0,19-5.06c8.28-5.08,13.88-13.69,16.68-25.59L153.8,90.64c2,6.25,0,13.15-6.21,21a3,3,0,1,0,4.64,3.67c8.38-10.58,10.4-20.45,6-29.37l16.61-17.6c11.7,9.87,13.22,23.36,4.66,41.16a3,3,0,0,0,1.39,4,2.93,2.93,0,0,0,1.28.3,3,3,0,0,0,2.67-1.68C194.6,91.8,192.6,75.65,178.94,64l22.28-23.6c21.39,9.6,31.11,22.7,29.69,40-1.59,19.38-10.06,35.91-25.88,50.56-13.86,12.83-30.61,21.48-41.69,27.2a3,3,0,0,0,1.36,5.59,3,3,0,0,0,1.36-.33c23.34-12.05,66.79-34.49,70.75-82.54C238.4,61.57,227.86,46.45,205.5,35.85ZM225,6a.18.18,0,0,1,.26,0,.19.19,0,0,1,0,.26L144.54,91.82l-5.09-5.08ZM135.14,90.8l5.34,5.33-3,3.17L132,93.79Zm-14.63,34.73a29.12,29.12,0,0,1-12.84,4.05,19.45,19.45,0,0,0,6.41-17.13,13.4,13.4,0,0,1,10.34-14.93l2.37-.54,7.49,7.49C131.81,114.33,127.19,121.41,120.51,125.53Z"/><path class="cls-1" d="M174.45,127.76c1.35-1.55,2.64-3.16,3.83-4.78a3,3,0,0,0-4.77-3.51c-1.1,1.49-2.28,3-3.53,4.41a3,3,0,0,0,.3,4.18,3,3,0,0,0,4.17-.3Z"/><path class="cls-1" d="M167,131.33a3,3,0,0,0-4.18-.24c-25,22.24-66.28,32.28-96.49,36.79a411.46,411.46,0,0,1-60.6,4.49,3,3,0,1,0-.11,5.92h2a426.32,426.32,0,0,0,59.48-4.55c45.16-6.73,78.69-19.59,99.66-38.24A3,3,0,0,0,167,131.33Z"/><path class="cls-1" d="M112.52,65.69a3.25,3.25,0,0,0,.69.08,3,3,0,0,0,.68-5.84c-3-.71-4.81-1-4.89-1.06a3,3,0,1,0-1,5.83S109.73,65,112.52,65.69Z"/><path class="cls-1" d="M197.06,116.85a2.9,2.9,0,0,0,1.82.63,2.93,2.93,0,0,0,2.33-1.14C209.3,106,218,90.28,213.71,74.2A3,3,0,1,0,208,75.74c2.92,10.86-1,23.64-11.45,37A3,3,0,0,0,197.06,116.85Z"/><path class="cls-1" d="M204.48,67.91A2.92,2.92,0,0,0,207,69.24a3,3,0,0,0,1.63-.49,3,3,0,0,0,.83-4.1,26.68,26.68,0,0,0-4.89-5.7,3,3,0,0,0-3.75,4.58A22.13,22.13,0,0,1,204.48,67.91Z"/><path class="cls-1" d="M85.87,9.86h.19s2.13-.13,5.8-.24a3,3,0,1,0-.18-5.92c-3.77.12-5.9.25-6,.25a3,3,0,0,0,.18,5.92Z"/></g></g></svg>