<svg xmlns="http://www.w3.org/2000/svg" viewBox="0 0 230 155.9"><defs><style>.cls-1{fill:#8dcb3c;}</style></defs><title>servicio-3</title><g id="Capa_2" data-name="Capa 2"><g id="Controles_bootstrap" data-name="Controles bootstrap"><path class="cls-1" d="M226,109.23a111.79,111.79,0,0,0-32.48-76.42,110.34,110.34,0,0,0-157,0A111.79,111.79,0,0,0,4,109.23a7.78,7.78,0,0,0-4,6.82v32.08a7.74,7.74,0,0,0,7.7,7.77H222.3a7.74,7.74,0,0,0,7.7-7.77V116.05A7.78,7.78,0,0,0,226,109.23Zm-47.65,19.1V115.8h32.29v12.53Zm-170.89,0V116.05a.25.25,0,0,1,.25-.25h4.22v12.53ZM18,75.54,33.1,81.87a88.25,88.25,0,0,0-5.2,26.41H11.5A104.52,104.52,0,0,1,18,75.54ZM39.21,40.88l11.6,11.7A88.2,88.2,0,0,0,36,74.93L20.81,68.6A104.77,104.77,0,0,1,39.21,40.88ZM72,17l6.28,15.29a87.21,87.21,0,0,0-22.15,15l-11.6-11.7A103.8,103.8,0,0,1,72,17ZM185.52,35.56l-11.6,11.7a87.21,87.21,0,0,0-22.15-15L158.05,17A104.07,104.07,0,0,1,185.52,35.56Zm23.67,33L194,74.93a88.2,88.2,0,0,0-14.85-22.35l11.6-11.7A104.77,104.77,0,0,1,209.19,68.6Zm9.31,39.68H202.1a88.25,88.25,0,0,0-5.2-26.41l15.15-6.33A104.52,104.52,0,0,1,218.5,108.28Zm-79.9,20.05V115.8h32.29v12.53Zm-39.74,0V115.8h32.28v12.53Zm-39.75,0V115.8H91.4v12.53Zm75.28-20.05c-1.09-8.77-5.92-13.46-9.9-17.32-2.7-2.62-5-4.87-5.9-8a3.77,3.77,0,0,0-2.74-2.66,3.72,3.72,0,0,0-3.62,1.15c-.48.54-11,12.48-12.65,26.83H79.09C80.23,87.78,90.69,79,100,71.11c5.9-5,11.55-9.73,13.77-16.68C118,58.33,121,63.8,123,68.21a74,74,0,0,1,4.29,12.55,3.71,3.71,0,0,0,6.56,1.52,56.35,56.35,0,0,0,6.41-10.86c5.14,6.84,13.49,20.32,14.62,36.86Zm-7.53,0H107.1c1-6.87,4.55-13.22,7.27-17.28a43.16,43.16,0,0,0,5,5.38C122.81,99.76,125.9,102.77,126.86,108.28Zm35.47,0c-1.62-27-20-46.16-20.83-47a3.71,3.71,0,0,0-3.68-1,3.75,3.75,0,0,0-2.61,2.79A32.51,32.51,0,0,1,132.13,71c-3-8.39-9-21-19.38-26.48a3.69,3.69,0,0,0-3.65.12,3.75,3.75,0,0,0-1.8,3.21c0,7.28-5.07,11.56-12.09,17.47-10,8.46-22.4,18.91-23.58,42.94H35.36c2-42.63,36.93-76.7,79.64-76.7s77.69,34.07,79.64,76.7ZM144.89,29.39a85.83,85.83,0,0,0-26.16-5.24V7.59a102.27,102.27,0,0,1,32.44,6.51Zm-33.62-5.24a85.83,85.83,0,0,0-26.16,5.24L78.83,14.1a102.27,102.27,0,0,1,32.44-6.51ZM19.37,115.8H51.66v12.53H19.37Zm52.16,20v12.53H39.24V135.85Zm7.45,0h32.29v12.53H79Zm39.75,0H151v12.53H118.73Zm39.74,0h32.29v12.53H158.47Zm59.61-20h4.22a.25.25,0,0,1,.25.25v12.28h-4.47ZM7.45,148.13V135.85H31.79v12.53H7.7A.25.25,0,0,1,7.45,148.13Zm214.85.25H198.21V135.85h24.34v12.28A.25.25,0,0,1,222.3,148.38Z"/></g></g></svg>