<svg xmlns="http://www.w3.org/2000/svg" viewBox="0 0 153.84 200"><defs><style>.cls-1{fill:#8dcb3c;}</style></defs><title>servicio-1</title><g id="Capa_2" data-name="Capa 2"><g id="Controles_bootstrap" data-name="Controles bootstrap"><path class="cls-1" d="M120.64,52.21c4,1.5,4.14,7.09,4.19,8.93.29,9.88-5.53,15.35-9.7,17.45-2.82,26.53-23.75,38.48-38,38.48S42,105.12,39.21,78.59c-4.16-2.1-10-7.57-9.7-17.45,0-1.84.22-7.43,4.19-8.93s8,2.54,8.74,3.37a2.72,2.72,0,0,1-4,3.71,7,7,0,0,0-2.9-2,12.08,12.08,0,0,0-.62,4c-.29,9.93,7.3,12.7,7.62,12.81A2.73,2.73,0,0,1,44.3,76l.13.45a2.74,2.74,0,0,1,.08.5c2.21,26.23,22.95,34.72,32.66,34.72s30.44-8.49,32.65-34.72a2.74,2.74,0,0,1,.08-.5L110,76a2.73,2.73,0,0,1,1.76-1.86c.3-.1,7.89-2.88,7.6-12.8-.1-3.36-.8-4.06-.81-4.07a11.14,11.14,0,0,0-2.71,2.06,2.72,2.72,0,1,1-4-3.72C112.67,54.75,116.7,50.72,120.64,52.21Zm32.94,89.08c-1.69-22.11-21.76-37.95-38.43-44.79a2.72,2.72,0,1,0-2.07,5c15.24,6.25,33.57,20.53,35.07,40.17.56,7.22,0,29.35,0,29.7,0,.1.14,10.13-5.9,16.31-3.12,3.19-7.45,4.8-12.86,4.8a2.72,2.72,0,1,0,0,5.44c6.93,0,12.57-2.16,16.75-6.44,7.62-7.79,7.46-19.72,7.45-20.1C153.61,170.5,154.15,148.78,153.58,141.29ZM24.45,192.52c-18.11,0-18.74-20.36-18.76-21.24,0-.22-.56-22.36,0-29.57,1.51-19.65,19.83-33.93,35.07-40.18a2.72,2.72,0,1,0-2.06-5C22,103.34,2,119.18.26,141.29c-.57,7.49,0,29.21,0,30.11C.41,180.58,5.66,198,24.45,198a2.72,2.72,0,1,0,0-5.44Zm57-110a2.72,2.72,0,0,0,2.72-2.72V63.93a2.72,2.72,0,1,0-5.44,0V77.11h-5.9a2.72,2.72,0,0,0,0,5.44Zm.24-55.8H72.13c-5,0-9,3.13-9,6.94H90.77C90.76,29.88,86.69,26.75,81.72,26.75Zm15.91,89.47a2.71,2.71,0,0,0,1.31,3.61l13,6.11a2.75,2.75,0,0,0,1.16.25,2.7,2.7,0,0,0,2.71-2.54l1-15.66a2.71,2.71,0,0,0-2.54-2.89,2.76,2.76,0,0,0-2.89,2.54l-.76,11.68-9.39-4.41A2.71,2.71,0,0,0,97.63,116.22ZM53.1,114.91l-9.39,4.41-.77-11.68a2.72,2.72,0,0,0-5.43.35l1,15.66a2.71,2.71,0,0,0,1.33,2.16,2.76,2.76,0,0,0,1.38.38,2.62,2.62,0,0,0,1.16-.26l13-6.1a2.72,2.72,0,0,0-2.31-4.92ZM93,194.56h23.33a2.72,2.72,0,1,1,0,5.44H38a2.72,2.72,0,1,1,0-5.44H61.34c-4.38-3.69-7.85-9.75-9.2-19.5a14.59,14.59,0,0,1-28.81-3.27V153.25c0-4,0-8.49,3.16-11.71,2.39-2.41,6.14-3.57,11.45-3.57s9.06,1.16,11.45,3.57c3.2,3.22,3.18,7.73,3.16,11.71v3.18c2.48-10.56,8.91-15.55,12-17.39V124.85a2.72,2.72,0,0,1,2.72-2.72h19.8a2.72,2.72,0,0,1,2.72,2.72V139c3.07,1.82,9.41,6.75,11.94,17.11v-2.9c0-4,0-8.49,3.16-11.71,2.39-2.41,6.13-3.57,11.45-3.57s9,1.16,11.45,3.57c3.2,3.22,3.18,7.73,3.16,11.71v18.54a14.58,14.58,0,0,1-28.75,3.43C100.82,184.89,97.35,190.89,93,194.56ZM57.65,175.29H96.7a64.27,64.27,0,0,0,.67-9.75c0-.92,0-1.79-.1-2.64H57.08c-.06.85-.11,1.72-.11,2.64A64.2,64.2,0,0,0,57.65,175.29Zm51.09-29.92c-1.06,1.07-1.39,2.78-1.5,4.72h6.13a2.72,2.72,0,1,1,0,5.43h-6.2v4.77h6.2a2.72,2.72,0,0,1,0,5.44h-6.2v4.41h6.2a2.72,2.72,0,0,1,0,5.44H108a9.15,9.15,0,0,0,17.48-3.79V153.22c0-3.2,0-6.22-1.57-7.84-1.3-1.31-3.86-2-7.6-2S110,144.07,108.74,145.37ZM57.9,157.46H96.44C93.75,146.54,86.13,143.23,86,143.2a2.73,2.73,0,0,1-1.69-2.52V127.57H70v13.11a2.72,2.72,0,0,1-1.68,2.52C67.94,143.35,60.53,146.69,57.9,157.46ZM46.26,175.58H40.9a2.72,2.72,0,1,1,0-5.44h6.2v-4.41H40.9a2.72,2.72,0,0,1,0-5.44h6.2v-4.77H40.89a2.72,2.72,0,1,1,0-5.43H47c-.12-1.94-.44-3.65-1.5-4.71-1.31-1.31-3.86-2-7.6-2s-6.29.67-7.59,2c-1.61,1.62-1.59,4.64-1.57,7.84v18.57a9.15,9.15,0,0,0,17.49,3.79Zm30.91,19c9.41,0,15.47-4.56,18.31-13.83H58.87C61.71,190,67.76,194.56,77.17,194.56ZM16.27,50.28a2.73,2.73,0,0,1,1.44-3.57l16.63-7.08C34.38,19.84,35.59,0,76.92,0,119.5,0,119.5,21.07,119.5,41.43a2.72,2.72,0,0,1-2.72,2.72H37.61L19.84,51.72a2.69,2.69,0,0,1-1.06.22A2.74,2.74,0,0,1,16.27,50.28ZM39.78,38.71h74.28C114,19.91,112.37,5.44,76.92,5.44S39.85,19.91,39.78,38.71Z"/></g></g></svg>