<svg xmlns="http://www.w3.org/2000/svg" viewBox="0 0 186.48 244.69"><defs><style>.cls-1{fill:#c5715a;}.cls-2{fill:#98503d;}.cls-3{fill:#572b1f;}.cls-4{fill:#f4a86c;}.cls-5{fill:#fdd1a3;}</style></defs><title>vasija</title><g id="Capa_2" data-name="Capa 2"><g id="Controles_bootstrap" data-name="Controles bootstrap"><path class="cls-1" d="M14.48,147.67a65,65,0,0,1,9.36-31.38c.47-.8,1.18-1.52,1.15-2.56,2.26-2,3.45-4.7,5.16-7.06,1-1.31,2.33-2.44,2.41-4.27a2,2,0,0,0,1.11-.83C40.8,91.66,47.3,81.39,51.3,69.76a91,91,0,0,0,5-23.23,79.1,79.1,0,0,0,1-15.06c.9-9.34-5.8-17.87-16.63-17.17-3.32.22-6.68,0-10,.07-1.53.05-2.07-.36-2-2,.11-4.13,0-8.27,0-12.4H93.25V33.2q0,46.44,0,92.9l-.5.46c-8.62,8.7-17.29,17.35-25.81,26.15-1.74,1.8-2.66,1.62-4.31-.06-8.18-8.34-16.53-16.53-24.72-24.86-1.4-1.42-2.16-1.41-3.55,0C27.83,134.49,21.13,141.06,14.48,147.67ZM64.6,112.44a8.32,8.32,0,0,0-1,.72c-2.76,2.74-5.49,5.52-8.27,8.24-.94.92-.38,1.51.28,2.17,2.59,2.57,5.19,5.14,7.74,7.76.84.85,1.46,1,2.35,0q3.9-4,7.92-7.92c1-.92.71-1.54-.11-2.35-2.61-2.55-5.18-5.16-7.77-7.73A13.81,13.81,0,0,0,64.6,112.44Z"/><path class="cls-2" d="M93.29,126.1q0-46.45,0-92.9V0h64.52c0,3.66,0,7.32,0,11,0,3.85.48,3.28-3.48,3.37s-7.94-.16-11.92.2c-7.74.7-13.81,7.6-13.15,16.9.37,5,.17,10.06,1,15,.25,2,.49,3.93.74,5.89,2.49,18.9,11,35.11,22.5,49.92,2.61,3.89,5.15,7.83,8.14,11.45,1.56,4,4.06,7.46,5.64,11.42a62.15,62.15,0,0,1,4.8,21.58c-6.46-6.36-13-12.68-19.33-19.11-1.43-1.44-2.22-1.34-3.59.05-8.2,8.33-16.55,16.51-24.72,24.86-1.67,1.7-2.56,1.78-4.29,0C111.25,143.67,102.24,134.91,93.29,126.1Zm38.55-3.73a10.65,10.65,0,0,0-.72-1c-2.75-2.76-5.52-5.5-8.25-8.28-.91-.94-1.49-.4-2.16.27-2.57,2.59-5.13,5.21-7.77,7.74-1,1-.81,1.64.1,2.52q3.85,3.73,7.59,7.59c.9.93,1.55,1.09,2.52.07,2.53-2.63,5.16-5.18,7.74-7.77C131.21,123.21,131.48,122.82,131.84,122.37Z"/><path class="cls-2" d="M43.07,244.69l0-29.17,50-.09.15.16q0,14.55,0,29.1Z"/><path class="cls-3" d="M93.25,244.69q0-14.55,0-29.1l50.15,0q0,14.56,0,29.13Z"/><path class="cls-2" d="M143.45,215.56l-50.15,0-.15-.16q.06-12.8.11-25.59c3-3,6.08-6,9.16-9,.89-.86.89-1.48,0-2.34-3.08-3-6.11-6-9.16-9V146.78a5.85,5.85,0,0,1,2,1.67c8.39,8.27,16.81,16.5,25.11,24.86,1.53,1.54,2.31,1.4,3.73-.05,8.21-8.34,16.56-16.54,24.75-24.89,1.63-1.66,2.52-1.62,4.13,0,5.8,5.9,11.75,11.64,17.65,17.44-.81,6.44-3.13,12.43-5.76,18.29C159.59,195.85,151.45,205.66,143.45,215.56Z"/><path class="cls-3" d="M130.21,46.48c-.83-5-.63-10-1-15a45.68,45.68,0,0,1,25.18-.85,43.53,43.53,0,0,1,32.05,40.06c.68,19.07-7.59,33-23.75,42.66a7.37,7.37,0,0,1-1.1.43c-3-3.62-5.53-7.56-8.14-11.45,1.33-.89,2.62-1.81,4-2.66,10.64-6.69,15.3-16.34,14.68-28.82a28.74,28.74,0,0,0-32-27.05C136.61,44.18,133.47,45.49,130.21,46.48Z"/><path class="cls-4" d="M170.62,165.82c-5.9-5.8-11.85-11.54-17.65-17.44-1.61-1.63-2.5-1.67-4.13,0-8.19,8.35-16.54,16.55-24.75,24.89-1.42,1.45-2.2,1.59-3.73.05-8.3-8.36-16.72-16.59-25.11-24.86a5.85,5.85,0,0,0-2-1.67,2.64,2.64,0,0,0,0-.28q0-8.46,0-16.92a5.32,5.32,0,0,0-.46-3l.5-.46c8.95,8.81,18,17.57,26.81,26.48,1.73,1.74,2.62,1.66,4.29,0,8.17-8.35,16.52-16.53,24.72-24.86,1.37-1.39,2.16-1.49,3.59-.05,6.37,6.43,12.87,12.75,19.33,19.11A60.62,60.62,0,0,1,170.62,165.82Z"/><path class="cls-1" d="M93.26,189.84q-.06,12.79-.11,25.59l-50,.09c-9.93-9.83-18.2-20.8-23.2-34a70.63,70.63,0,0,1-4-15.14c.6-.5,1.26-.95,1.81-1.51,5.46-5.47,11-10.9,16.31-16.47,1.61-1.68,2.55-1.9,4.31-.09,7.89,8.1,15.95,16,23.95,24,2.6,2.6,2.59,2.59,5.16,0q12.9-12.94,25.82-25.87a2.64,2.64,0,0,1,0,.28v22.76a2.17,2.17,0,0,1,0,.26c-3.35,2.67-6.1,6-9.21,8.89a1.16,1.16,0,0,0,0,2c3.11,2.93,5.86,6.22,9.2,8.9A2.45,2.45,0,0,1,93.26,189.84Z"/><path class="cls-2" d="M32.56,102.4c-.08,1.83-1.45,3-2.41,4.27-1.71,2.36-2.9,5.11-5.16,7.06C13.37,107.53,4.92,98.52,1.68,85.57-1.84,71.54,0,58.23,8.84,46.33A43,43,0,0,1,54.59,30.79c.92.26,1.85.46,2.77.68a79.1,79.1,0,0,1-1,15.06c-.75-.27-1.5-.52-2.24-.81-9.77-3.86-19-2.87-27.67,3.08C10.09,60,9.91,87.28,27.44,98.62,29.21,99.77,31.19,100.69,32.56,102.4Z"/><path class="cls-5" d="M93.24,146.5q-12.92,12.93-25.82,25.87c-2.57,2.58-2.56,2.59-5.16,0-8-8-16.06-15.94-23.95-24-1.76-1.81-2.7-1.59-4.31.09-5.35,5.57-10.85,11-16.31,16.47-.55.56-1.21,1-1.81,1.51a70.44,70.44,0,0,1-1.4-18.72c6.65-6.61,13.35-13.18,19.92-19.87,1.39-1.42,2.15-1.43,3.55,0,8.19,8.33,16.54,16.52,24.72,24.86,1.65,1.68,2.57,1.86,4.31.06,8.52-8.8,17.19-17.45,25.81-26.15a5.32,5.32,0,0,1,.46,3Q93.25,138,93.24,146.5Z"/><path class="cls-5" d="M64.6,112.44a13.81,13.81,0,0,1,1.16.94c2.59,2.57,5.16,5.18,7.77,7.73.82.81,1.07,1.43.11,2.35q-4,3.9-7.92,7.92c-.89.92-1.51.8-2.35,0-2.55-2.62-5.15-5.19-7.74-7.76-.66-.66-1.22-1.25-.28-2.17,2.78-2.72,5.51-5.5,8.27-8.24A8.32,8.32,0,0,1,64.6,112.44Z"/><path class="cls-4" d="M131.84,122.37c-.36.45-.63.84-1,1.17-2.58,2.59-5.21,5.14-7.74,7.77-1,1-1.62.86-2.52-.07q-3.73-3.86-7.59-7.59c-.91-.88-1.13-1.53-.1-2.52,2.64-2.53,5.2-5.15,7.77-7.74.67-.67,1.25-1.21,2.16-.27,2.73,2.78,5.5,5.52,8.25,8.28A10.65,10.65,0,0,1,131.84,122.37Z"/><path class="cls-4" d="M93.26,169.54c3,3,6.08,6,9.16,9,.89.86.89,1.48,0,2.34-3.08,3-6.11,6-9.16,9a2.45,2.45,0,0,0,0-.27q0-9.88,0-19.77A2.17,2.17,0,0,0,93.26,169.54Z"/><path class="cls-5" d="M93.25,169.8q0,9.88,0,19.77c-3.34-2.68-6.09-6-9.2-8.9a1.16,1.16,0,0,1,0-2C87.15,175.77,89.9,172.47,93.25,169.8Z"/></g></g></svg>